<svg xmlns="http://www.w3.org/2000/svg" xmlns:xlink="http://www.w3.org/1999/xlink" version="1.1" viewBox="0 0 2500 1000" style="background:#111"><defs><style>@import url(https://fonts.googleapis.com/css?family=Open+Sans:400,700);</style></defs><g transform="translate(25,100)"><rect width="450" height="300" x="0" y="0" fill="#00d230" stroke="#005e2a" stroke-width="10" rx="20" ry="20"/><text x="225" y="132" fill="#000" font-family="Open Sans" font-size="30" text-anchor="middle"><tspan x="225" dy="40">Application</tspan></text></g><g transform="translate(525,100)"><path id="keyDatabaseCylinderPath" fill="#00d230" stroke="#00bd2b" stroke-width="2" d="M 0,22.5 a 225,22.5 0,0,0 450 0 a 225,22.5 0,0,0 -450 0 l 0,255 a 225,22.5 0,0,0 450 0 l 0,-255"/><text x="225" y="143.25" fill="#000" font-family="Open Sans" font-size="30" text-anchor="middle"><tspan x="225" dy="40">Database</tspan></text></g><g transform="translate(1025,25)"><rect width="450" height="270" x="0" y="180" fill="#ddd" stroke="#c7c7c7" stroke-width="2" rx="90"/><circle cx="225" cy="100" r="100" fill="#ddd" stroke="#c7c7c7" stroke-width="2"/><line x1="90" x2="90" y1="300" y2="450" stroke="#c7c7c7" stroke-width="2"/><line x1="360" x2="360" y1="300" y2="450" stroke="#c7c7c7" stroke-width="2"/><text x="225" y="257" fill="#000" font-family="Open Sans" font-size="30" text-anchor="middle"><tspan x="225" dy="40">External Contact</tspan></text></g><g transform="translate(1525,100)"><ellipse cx="225" cy="150" fill="#00d230" stroke="#00bd2b" stroke-width="2" rx="225" ry="150"/><text x="225" y="132" fill="#000" font-family="Open Sans" font-size="30" text-anchor="middle"><tspan x="225" dy="40">Managed Service</tspan></text></g><g transform="translate(2025,25)"><rect width="450" height="270" x="0" y="180" fill="#f90" stroke="#e68a00" stroke-width="2" rx="90"/><circle cx="225" cy="100" r="100" fill="#f90" stroke="#e68a00" stroke-width="2"/><line x1="90" x2="90" y1="300" y2="450" stroke="#e68a00" stroke-width="2"/><line x1="360" x2="360" y1="300" y2="450" stroke="#e68a00" stroke-width="2"/><text x="225" y="257" fill="#000" font-family="Open Sans" font-size="30" text-anchor="middle"><tspan x="225" dy="40">Relay User</tspan></text></g><g transform="translate(25,600)"><rect width="450" height="300" x="0" y="0" fill="#00d230" stroke="#00bd2b" stroke-width="2" rx="3" ry="3"/><text x="225" y="132" fill="#000" font-family="Open Sans" font-size="30" text-anchor="middle"><tspan x="225" dy="40">Task</tspan></text></g><g><path d="M390,0 L390,60 L450,30 L 390,0" transform="translate(525,670)" style="fill:#505050"/><path d="M0,30 L390,30" transform="translate(525,670)" style="stroke:#505050;stroke-width:6;fill:none;stroke-dasharray:5 5"/><text x="225" y="77" fill="#505050" font-family="Open Sans" font-size="30" text-anchor="middle" transform="translate(525,670)"><tspan x="225" dy="40">Optional Relationship</tspan></text></g><g><path d="M390,0 L390,60 L450,30 L 390,0" transform="translate(1025,670)" style="fill:#505050"/><path d="M0,30 L390,30" transform="translate(1025,670)" style="stroke:#505050;stroke-width:6;fill:none"/><text x="225" y="77" fill="#505050" font-family="Open Sans" font-size="30" text-anchor="middle" transform="translate(1025,670)"><tspan x="225" dy="40">Relationship</tspan></text></g></svg>