<svg xmlns="http://www.w3.org/2000/svg" xmlns:xlink="http://www.w3.org/1999/xlink" version="1.1" viewBox="0 0 2995 2063" style="background:#111"><defs><style>@import url(https://fonts.googleapis.com/css?family=Open+Sans:400,700);</style></defs><g joint-selector="layers"><g transform="matrix(1,0,0,1,0,0)"><g id="j_1115" transform="translate(20,2026.6)"><g id="v-16930"><text id="v-16931" y=".8em" fill="#777" display="block" font-family="Open Sans" font-size="22" font-weight="normal" pointer-events="none" text-anchor="start" xml:space="preserve"><tspan display="block" dy="0">Monday, September 15, 2025 at 10:27 AM Central Daylight Time</tspan></text></g></g><g id="j_1114" transform="translate(20,1983.3999999999999)"><g id="v-16928"><text id="v-16929" y=".8em" fill="#bbb" display="block" font-family="Open Sans" font-size="36" font-weight="normal" pointer-events="none" text-anchor="start" xml:space="preserve"><tspan display="block" dy="0">[System Context] Relay</tspan></text></g></g><g id="j_1116" transform="translate(199,1419)"><g id="v-16938" style="opacity:1"><rect id="v-16939" width="450" height="300" fill="#ddd" stroke="#c7c7c7" stroke-width="2" pointer-events="visiblePainted" rx="1" ry="1" style="fill:#ddd;stroke:#c7c7c7"/><text id="v-16940" y=".8em" fill="#000" font-family="Open Sans" font-size="34" font-weight="bold" pointer-events="visible" text-anchor="middle" transform="matrix(1,0,0,1,225,88.0999984741211)" xml:space="preserve" style="fill:#000"><tspan dy="0">Google Analytics</tspan></text><text id="v-16941" y=".8em" fill="#000" font-family="Open Sans" font-size="17" text-anchor="middle" transform="matrix(1,0,0,1,225,128.89999389648438)" xml:space="preserve" style="fill:#000"><tspan dy="0">[Software System]</tspan></text><text id="v-16942" y=".8em" fill="#000" font-family="Open Sans" font-size="24" text-anchor="middle" transform="matrix(1,0,0,1,225,159.3000030517578)" xml:space="preserve" style="fill:#000"><tspan dy="0">Collects and reports interaction</tspan><tspan x="0" dy="1.2em">events</tspan></text><image id="v-16944"/></g></g><g id="j_1117" transform="translate(199,1055)"><g id="v-16948" style="opacity:1"><rect id="v-16949" width="450" height="300" fill="#ddd" stroke="#c7c7c7" stroke-width="2" pointer-events="visiblePainted" rx="1" ry="1" style="fill:#ddd;stroke:#c7c7c7"/><text id="v-16950" y=".8em" fill="#000" font-family="Open Sans" font-size="34" font-weight="bold" pointer-events="visible" text-anchor="middle" transform="matrix(1,0,0,1,225,88.0999984741211)" xml:space="preserve" style="fill:#000"><tspan dy="0">Stripe</tspan></text><text id="v-16951" y=".8em" fill="#000" font-family="Open Sans" font-size="17" text-anchor="middle" transform="matrix(1,0,0,1,225,128.89999389648438)" xml:space="preserve" style="fill:#000"><tspan dy="0">[Software System]</tspan></text><text id="v-16952" y=".8em" fill="#000" font-family="Open Sans" font-size="24" text-anchor="middle" transform="matrix(1,0,0,1,225,159.3000030517578)" xml:space="preserve" style="fill:#000"><tspan dy="0">Handles billing and payment</tspan><tspan x="0" dy="1.2em">processing</tspan></text><image id="v-16954"/></g></g><g id="j_1119" transform="translate(749,820)"><g id="v-16968"><rect id="v-16969" width="1540" height="1044" fill="#111" stroke="#ccc" stroke-dasharray="5 5" stroke-width="1" pointer-events="none" rx="0" ry="0"/><text id="v-16970" y="1029" fill="#ccc" font-family="Open Sans" font-size="24" font-weight="normal" pointer-events="visible" text-anchor="start" transform="matrix(1,0,0,1,15,0)" xml:space="preserve"><tspan dy="0">Mozilla</tspan></text><text id="v-16971" y="1029" fill="#ccc" display="none" font-family="Open Sans" font-size="17" font-weight="normal" pointer-events="visible" text-anchor="start" transform="matrix(1,0,0,1,15,0)" xml:space="preserve"><tspan style="fill-opacity:0;stroke-opacity:0" dy="0">-</tspan></text><image id="v-16972" pointer-events="visible"/></g></g><g id="j_1118" transform="translate(905,840)"><g id="v-16961" style="opacity:1"><rect id="v-16962" width="450" height="300" fill="#ddd" stroke="#c7c7c7" stroke-width="2" pointer-events="visiblePainted" rx="1" ry="1" style="fill:#ddd;stroke:#c7c7c7"/><text id="v-16963" y=".8em" fill="#000" font-family="Open Sans" font-size="34" font-weight="bold" pointer-events="visible" text-anchor="middle" transform="matrix(1,0,0,1,225,67.69999694824219)" xml:space="preserve" style="fill:#000"><tspan dy="0">Accounts and</tspan><tspan x="0" dy="1.2em">Subscriptions</tspan></text><text id="v-16964" y=".8em" fill="#000" font-family="Open Sans" font-size="17" text-anchor="middle" transform="matrix(1,0,0,1,225,149.3000030517578)" xml:space="preserve" style="fill:#000"><tspan dy="0">[Software System]</tspan></text><text id="v-16965" y=".8em" fill="#000" font-family="Open Sans" font-size="24" text-anchor="middle" transform="matrix(1,0,0,1,225,179.6999969482422)" xml:space="preserve" style="fill:#000"><tspan dy="0">Mozilla Accounts and the</tspan><tspan x="0" dy="1.2em">Subscription Platform.</tspan></text><image id="v-16967"/></g></g><g id="j_1120" transform="translate(769,1489)"><g id="v-16976" style="opacity:1"><rect id="v-16977" width="450" height="300" fill="#ddd" stroke="#c7c7c7" stroke-width="2" pointer-events="visiblePainted" rx="1" ry="1" style="fill:#ddd;stroke:#c7c7c7"/><text id="v-16978" y=".8em" fill="#000" font-family="Open Sans" font-size="34" font-weight="bold" pointer-events="visible" text-anchor="middle" transform="matrix(1,0,0,1,225,102.5)" xml:space="preserve" style="fill:#000"><tspan dy="0">Data Platform</tspan></text><text id="v-16979" y=".8em" fill="#000" font-family="Open Sans" font-size="17" text-anchor="middle" transform="matrix(1,0,0,1,225,143.3000030517578)" xml:space="preserve" style="fill:#000"><tspan dy="0">[Software System]</tspan></text><text id="v-16980" y=".8em" fill="#000" font-family="Open Sans" font-size="24" text-anchor="middle" transform="matrix(1,0,0,1,225,173.6999969482422)" xml:space="preserve" style="fill:#000"><tspan dy="0">The Mozilla Telemetry Platform</tspan></text><image id="v-16982"/></g></g><g id="j_1121" transform="translate(1819,1489)"><g id="v-16989" style="opacity:1"><rect id="v-16990" width="450" height="300" fill="#ddd" stroke="#c7c7c7" stroke-width="2" pointer-events="visiblePainted" rx="1" ry="1" style="fill:#ddd;stroke:#c7c7c7"/><text id="v-16991" y=".8em" fill="#000" font-family="Open Sans" font-size="34" font-weight="bold" pointer-events="visible" text-anchor="middle" transform="matrix(1,0,0,1,225,67.69999694824219)" xml:space="preserve" style="fill:#000"><tspan dy="0">Google Managed</tspan><tspan x="0" dy="1.2em">Prometheus</tspan></text><text id="v-16992" y=".8em" fill="#000" font-family="Open Sans" font-size="17" text-anchor="middle" transform="matrix(1,0,0,1,225,149.3000030517578)" xml:space="preserve" style="fill:#000"><tspan dy="0">[Software System]</tspan></text><text id="v-16993" y=".8em" fill="#000" font-family="Open Sans" font-size="24" text-anchor="middle" transform="matrix(1,0,0,1,225,179.6999969482422)" xml:space="preserve" style="fill:#000"><tspan dy="0">Stores metrics for queries and</tspan><tspan x="0" dy="1.2em">reports</tspan></text><image id="v-16995"/></g></g><g id="j_1122" transform="translate(1295,1490)"><g id="v-16999" style="opacity:1"><rect id="v-17000" width="450" height="300" fill="#ddd" stroke="#c7c7c7" stroke-width="2" pointer-events="visiblePainted" rx="1" ry="1" style="fill:#ddd;stroke:#c7c7c7"/><text id="v-17001" y=".8em" fill="#000" font-family="Open Sans" font-size="34" font-weight="bold" pointer-events="visible" text-anchor="middle" transform="matrix(1,0,0,1,225,88.0999984741211)" xml:space="preserve" style="fill:#000"><tspan dy="0">Sentry</tspan></text><text id="v-17002" y=".8em" fill="#000" font-family="Open Sans" font-size="17" text-anchor="middle" transform="matrix(1,0,0,1,225,128.89999389648438)" xml:space="preserve" style="fill:#000"><tspan dy="0">[Software System]</tspan></text><text id="v-17003" y=".8em" fill="#000" font-family="Open Sans" font-size="24" text-anchor="middle" transform="matrix(1,0,0,1,225,159.3000030517578)" xml:space="preserve" style="fill:#000"><tspan dy="0">Collects and organizes tracebacks</tspan><tspan x="0" dy="1.2em">and errors</tspan></text><image id="v-17005"/></g></g><g id="j_1123" transform="translate(1654,855)"><g id="v-17009" style="opacity:1"><rect id="v-17010" width="450" height="300" fill="#005e2a" stroke="#005526" stroke-width="2" pointer-events="visiblePainted" rx="1" ry="1" style="fill:#005e2a;stroke:#005526"/><text id="v-17011" y=".8em" fill="#fff" font-family="Open Sans" font-size="34" font-weight="bold" pointer-events="visible" text-anchor="middle" transform="matrix(1,0,0,1,225,73.69999694824219)" xml:space="preserve" style="fill:#fff"><tspan dy="0">Firefox Relay</tspan></text><text id="v-17012" y=".8em" fill="#fff" font-family="Open Sans" font-size="17" text-anchor="middle" transform="matrix(1,0,0,1,225,114.5)" xml:space="preserve" style="fill:#fff"><tspan dy="0">[Software System]</tspan></text><text id="v-17013" y=".8em" fill="#fff" font-family="Open Sans" font-size="24" text-anchor="middle" transform="matrix(1,0,0,1,225,144.89999389648438)" xml:space="preserve" style="fill:#fff"><tspan dy="0">Manages email and phone masks.</tspan><tspan x="0" dy="1.2em">Forwards messages between masks</tspan><tspan x="0" dy="1.2em">and external services.</tspan></text><g id="v-17014" color="#fff" display="none" style="fill:#fff"><g transform="matrix(1,0,0,1,210,268) translate(5 0)"><svg xmlns="http://www.w3.org/2000/svg" width="20" height="20" fill="currentColor" viewBox="0 0 16 16"><path fill-rule="evenodd" d="M6.5 12a5.5 5.5 0 1 0 0-11 5.5 5.5 0 0 0 0 11zM13 6.5a6.5 6.5 0 1 1-13 0 6.5 6.5 0 0 1 13 0z"/><path d="M10.344 11.742c.03.04.062.078.098.115l3.85 3.85a1 1 0 0 0 1.415-1.414l-3.85-3.85a1.007 1.007 0 0 0-.115-.1 6.538 6.538 0 0 1-1.398 1.4z"/><path fill-rule="evenodd" d="M6.5 3a.5.5 0 0 1 .5.5V6h2.5a.5.5 0 0 1 0 1H7v2.5a.5.5 0 0 1-1 0V7H3.5a.5.5 0 0 1 0-1H6V3.5a.5.5 0 0 1 .5-.5z"/></svg></g></g><image id="v-17015"/></g></g><g id="j_1124" transform="translate(1299,200)"><g id="v-17019" style="opacity:1"><rect id="v-17021" width="400" height="240" x="0" y="160" fill="#f90" stroke="#e68a00" stroke-width="2" pointer-events="visiblePainted" rx="70" style="fill:#f90;stroke:#e68a00"/><circle id="v-17020" cx="200" cy="88.889" r="88.889" fill="#f90" stroke="#e68a00" stroke-width="2" pointer-events="visiblePainted" style="fill:#f90;stroke:#e68a00"/><line id="v-17027" x1="80" x2="80" y1="266.667" y2="400" stroke="#e68a00" stroke-width="2" style="stroke:#e68a00"/><line id="v-17028" x1="320" x2="320" y1="266.667" y2="400" stroke="#e68a00" stroke-width="2" style="stroke:#e68a00"/><text id="v-17022" y=".8em" fill="#000" font-family="Open Sans" font-size="34" font-weight="bold" pointer-events="visible" text-anchor="middle" transform="matrix(1,0,0,1,200,232.5)" xml:space="preserve" style="fill:#000"><tspan dy="0">Relay User</tspan></text><text id="v-17023" y=".8em" fill="#000" font-family="Open Sans" font-size="17" text-anchor="middle" transform="matrix(1,0,0,1,200,273.29998779296875)" xml:space="preserve" style="fill:#000"><tspan dy="0">[Person]</tspan></text><text id="v-17024" y=".8em" fill="#000" font-family="Open Sans" font-size="24" text-anchor="middle" transform="matrix(1,0,0,1,200,303.70001220703125)" xml:space="preserve" style="fill:#000"><tspan dy="0">A user of Firefox Relay.</tspan></text><image id="v-17026"/></g></g><g id="j_1125" transform="translate(2394,1250)"><g id="v-17032" style="opacity:1"><rect id="v-17034" width="400" height="240" x="0" y="160" fill="#ddd" stroke="#c7c7c7" stroke-width="2" pointer-events="visiblePainted" rx="70" style="fill:#ddd;stroke:#c7c7c7"/><circle id="v-17033" cx="200" cy="88.889" r="88.889" fill="#ddd" stroke="#c7c7c7" stroke-width="2" pointer-events="visiblePainted" style="fill:#ddd;stroke:#c7c7c7"/><line id="v-17040" x1="80" x2="80" y1="266.667" y2="400" stroke="#c7c7c7" stroke-width="2" style="stroke:#c7c7c7"/><line id="v-17041" x1="320" x2="320" y1="266.667" y2="400" stroke="#c7c7c7" stroke-width="2" style="stroke:#c7c7c7"/><text id="v-17035" y=".8em" fill="#000" font-family="Open Sans" font-size="34" font-weight="bold" pointer-events="visible" text-anchor="middle" transform="matrix(1,0,0,1,200,218.10000610351562)" xml:space="preserve" style="fill:#000"><tspan dy="0">Email Contact</tspan></text><text id="v-17036" y=".8em" fill="#000" font-family="Open Sans" font-size="17" text-anchor="middle" transform="matrix(1,0,0,1,200,258.8999938964844)" xml:space="preserve" style="fill:#000"><tspan dy="0">[Person]</tspan></text><text id="v-17037" y=".8em" fill="#000" font-family="Open Sans" font-size="24" text-anchor="middle" transform="matrix(1,0,0,1,200,289.29998779296875)" xml:space="preserve" style="fill:#000"><tspan dy="0">A person or business emailing</tspan><tspan x="0" dy="1.2em">with a Relay User.</tspan></text><image id="v-17039"/></g></g><g id="j_1126" transform="translate(2394,640)"><g id="v-17045" style="opacity:1"><rect id="v-17047" width="400" height="240" x="0" y="160" fill="#ddd" stroke="#c7c7c7" stroke-width="2" pointer-events="visiblePainted" rx="70" style="fill:#ddd;stroke:#c7c7c7"/><circle id="v-17046" cx="200" cy="88.889" r="88.889" fill="#ddd" stroke="#c7c7c7" stroke-width="2" pointer-events="visiblePainted" style="fill:#ddd;stroke:#c7c7c7"/><line id="v-17053" x1="80" x2="80" y1="266.667" y2="400" stroke="#c7c7c7" stroke-width="2" style="stroke:#c7c7c7"/><line id="v-17054" x1="320" x2="320" y1="266.667" y2="400" stroke="#c7c7c7" stroke-width="2" style="stroke:#c7c7c7"/><text id="v-17048" y=".8em" fill="#000" font-family="Open Sans" font-size="34" font-weight="bold" pointer-events="visible" text-anchor="middle" transform="matrix(1,0,0,1,200,218.10000610351562)" xml:space="preserve" style="fill:#000"><tspan dy="0">Phone Contact</tspan></text><text id="v-17049" y=".8em" fill="#000" font-family="Open Sans" font-size="17" text-anchor="middle" transform="matrix(1,0,0,1,200,258.8999938964844)" xml:space="preserve" style="fill:#000"><tspan dy="0">[Person]</tspan></text><text id="v-17050" y=".8em" fill="#000" font-family="Open Sans" font-size="24" text-anchor="middle" transform="matrix(1,0,0,1,200,289.29998779296875)" xml:space="preserve" style="fill:#000"><tspan dy="0">A person or business calling or</tspan><tspan x="0" dy="1.2em">texting with a Relay User.</tspan></text><image id="v-17052"/></g></g><g id="j_1127"><path id="v-17071" fill="none" stroke="#505050" stroke-width="2" d="M 1654 1078 L 1304 1192 C 1297.3333333333333 1194 1290.6666666666665 1195 1284 1195 L 649 1202" style="opacity:1"/><path fill="#000" stroke="#000" d="M 0 0 0 0" transform="matrix(-0.9510961771011353,0.30889490246772766,-0.30889490246772766,-0.9510961771011353,1654,1078.0799560546875)"/><path id="v-17073" fill="#505050" stroke="#505050" d="M 20 0 L 0 10 L 20 20 z" transform="matrix(0.9999340176582336,-0.011487559415400028,0.011487559415400028,0.9999340176582336,648.8851318359375,1192.41064453125)" style="opacity:1"/><path id="v-17072" fill="none" d="M 1654 1078 L 1304 1192 C 1297.3333333333333 1194 1290.6666666666665 1195 1284 1195 L 649 1202" style="cursor:default"/><g><g id="v-17062" cursor="move" label-idx="0" transform="matrix(1,0,0,1,1160.682861328125,1196.359375)" style="cursor:default;opacity:1"><rect id="v-17066" width="204.752" height="62.801" fill="#111" joint-selector="rect" pointer-events="none" rx="3" ry="3" transform="matrix(1,0,0,1,-102.4000015258789,-31.399999618530273)"/><text id="v-17065" y=".8em" fill="#505050" font-family="Open Sans" font-size="24" font-weight="normal" joint-selector="text" pointer-events="none" text-anchor="middle" transform="matrix(1,0,0,1,0,-24.200000762939453)" xml:space="preserve"><tspan dy="0">Requests</tspan><tspan x="0" dy="1.2em">purchase tracking</tspan></text></g><g id="v-17063" cursor="move" label-idx="1" transform="matrix(1,0,0,1,1160.682861328125,1237.159423828125)" style="cursor:default;opacity:1"><rect id="v-17068" width="65.733" height="24.862" fill="#111" joint-selector="rect" pointer-events="none" rx="3" ry="3" transform="matrix(1,0,0,1,-32.900001525878906,-12.399999618530273)"/><text id="v-17067" y=".8em" fill="#505050" font-family="Open Sans" font-size="17" font-weight="normal" joint-selector="text" pointer-events="none" text-anchor="middle" transform="matrix(1,0,0,1,0,-6.900000095367432)" xml:space="preserve"><tspan dy="0">[HTTPS]</tspan></text></g><g id="v-17064" cursor="move" label-idx="2" transform="matrix(1,0,0,1,1150.682861328125,1245.5594482421875)" style="cursor:default;opacity:1"><rect id="v-17070" width="0" height="0" fill="#fff" display="none" joint-selector="rect" rx="3" ry="3" transform="matrix(1,0,0,1,0,0)"/></g></g><g display="none"><g id="v-17059" transform="translate(1294, 1195)"><circle r="10" idx="0"/><path d="M16,5.333c-7.732,0-14,4.701-14,10.5c0,1.982,0.741,3.833,2.016,5.414L2,25.667l5.613-1.441c2.339,1.317,5.237,2.107,8.387,2.107c7.732,0,14-4.701,14-10.5C30,10.034,23.732,5.333,16,5.333z" idx="0" transform="translate(5, -33)"/><path d="M24.778,21.419 19.276,15.917 24.777,10.415 21.949,7.585 16.447,13.087 10.945,7.585 8.117,10.415 13.618,15.917 8.116,21.419 10.946,24.248 16.447,18.746 21.948,24.248z" idx="0" transform="scale(.8) translate(9.5, -37)"><title>Remove vertex.</title></path></g></g><g id="v-17075" display="none"><g id="v-17060"><path d="M 26 0 L 0 13 L 26 26 z" end="source"/></g><g id="v-17061"><path d="M 26 0 L 0 13 L 26 26 z" end="target"/></g></g><g id="v-17074" display="none"><g id="v-17058"><g event="remove" transform="translate(1615.9666308730234, 1090.388011658501)"><circle r="11"/><path d="M24.778,21.419 19.276,15.917 24.777,10.415 21.949,7.585 16.447,13.087 10.945,7.585 8.117,10.415 13.618,15.917 8.116,21.419 10.946,24.248 16.447,18.746 21.948,24.248z" transform="scale(.8) translate(-16, -16)"/><title>Remove link.</title></g><g event="link:options" transform="translate(1615.9666308730234, 1090.388011658501)"><circle r="11" transform="translate(25)"/><path fill="#fff" d="M31.229,17.736c0.064-0.571,0.104-1.148,0.104-1.736s-0.04-1.166-0.104-1.737l-4.377-1.557c-0.218-0.716-0.504-1.401-0.851-2.05l1.993-4.192c-0.725-0.91-1.549-1.734-2.458-2.459l-4.193,1.994c-0.647-0.347-1.334-0.632-2.049-0.849l-1.558-4.378C17.165,0.708,16.588,0.667,16,0.667s-1.166,0.041-1.737,0.105L12.707,5.15c-0.716,0.217-1.401,0.502-2.05,0.849L6.464,4.005C5.554,4.73,4.73,5.554,4.005,6.464l1.994,4.192c-0.347,0.648-0.632,1.334-0.849,2.05l-4.378,1.557C0.708,14.834,0.667,15.412,0.667,16s0.041,1.165,0.105,1.736l4.378,1.558c0.217,0.715,0.502,1.401,0.849,2.049l-1.994,4.193c0.725,0.909,1.549,1.733,2.459,2.458l4.192-1.993c0.648,0.347,1.334,0.633,2.05,0.851l1.557,4.377c0.571,0.064,1.148,0.104,1.737,0.104c0.588,0,1.165-0.04,1.736-0.104l1.558-4.377c0.715-0.218,1.399-0.504,2.049-0.851l4.193,1.993c0.909-0.725,1.733-1.549,2.458-2.458l-1.993-4.193c0.347-0.647,0.633-1.334,0.851-2.049L31.229,17.736zM16,20.871c-2.69,0-4.872-2.182-4.872-4.871c0-2.69,2.182-4.872,4.872-4.872c2.689,0,4.871,2.182,4.871,4.872C20.871,18.689,18.689,20.871,16,20.871z" transform="scale(.55) translate(29, -16)"/><title>Link options.</title></g></g></g></g><g id="j_1128"><path id="v-17091" fill="none" stroke="#505050" stroke-width="2" d="M 1374 600 L 1224 840" style="opacity:1"/><path fill="#000" stroke="#000" d="M 0 0 0 0" transform="matrix(-0.5302783250808716,0.8478236198425293,-0.8478236198425293,-0.5302783250808716,1373.9200439453125,600)"/><path id="v-17093" fill="#505050" stroke="#505050" d="M 20 0 L 0 10 L 20 20 z" transform="matrix(0.5302783250808716,-0.8478236198425293,0.8478236198425293,0.5302783250808716,1215.331787109375,834.697265625)" style="opacity:1"/><path id="v-17092" fill="none" d="M 1374 600 L 1224 840" style="cursor:default"/><g><g id="v-17082" cursor="move" label-idx="0" transform="matrix(1,0,0,1,1299,720)" style="cursor:default;opacity:1"><rect id="v-17086" width="143.233" height="91.601" fill="#111" joint-selector="rect" pointer-events="none" rx="3" ry="3" transform="matrix(1,0,0,1,-71.5999984741211,-45.79999923706055)"/><text id="v-17085" y=".8em" fill="#505050" font-family="Open Sans" font-size="24" font-weight="normal" joint-selector="text" pointer-events="none" text-anchor="middle" transform="matrix(1,0,0,1,0,-38.599998474121094)" xml:space="preserve"><tspan dy="0">Registers,</tspan><tspan x="0" dy="1.2em">manages</tspan><tspan x="0" dy="1.2em">subscription</tspan></text></g><g id="v-17083" cursor="move" label-idx="1" transform="matrix(1,0,0,1,1299,775.2000122070312)" style="cursor:default;opacity:1"><rect id="v-17088" width="65.733" height="24.862" fill="#111" joint-selector="rect" pointer-events="none" rx="3" ry="3" transform="matrix(1,0,0,1,-32.900001525878906,-12.399999618530273)"/><text id="v-17087" y=".8em" fill="#505050" font-family="Open Sans" font-size="17" font-weight="normal" joint-selector="text" pointer-events="none" text-anchor="middle" transform="matrix(1,0,0,1,0,-6.900000095367432)" xml:space="preserve"><tspan dy="0">[HTTPS]</tspan></text></g><g id="v-17084" cursor="move" label-idx="2" transform="matrix(1,0,0,1,1289,783.5999755859375)" style="cursor:default;opacity:1"><rect id="v-17090" width="0" height="0" fill="#fff" display="none" joint-selector="rect" rx="3" ry="3" transform="matrix(1,0,0,1,0,0)"/></g></g><g id="v-17095" display="none"><g id="v-17080"><path d="M 26 0 L 0 13 L 26 26 z" end="source"/></g><g id="v-17081"><path d="M 26 0 L 0 13 L 26 26 z" end="target"/></g></g><g id="v-17094" display="none"><g id="v-17079"><g event="remove" transform="translate(1352.8000423998728, 633.9199321602035)"><circle r="11"/><path d="M24.778,21.419 19.276,15.917 24.777,10.415 21.949,7.585 16.447,13.087 10.945,7.585 8.117,10.415 13.618,15.917 8.116,21.419 10.946,24.248 16.447,18.746 21.948,24.248z" transform="scale(.8) translate(-16, -16)"/><title>Remove link.</title></g><g event="link:options" transform="translate(1352.8000423998728, 633.9199321602035)"><circle r="11" transform="translate(25)"/><path fill="#fff" d="M31.229,17.736c0.064-0.571,0.104-1.148,0.104-1.736s-0.04-1.166-0.104-1.737l-4.377-1.557c-0.218-0.716-0.504-1.401-0.851-2.05l1.993-4.192c-0.725-0.91-1.549-1.734-2.458-2.459l-4.193,1.994c-0.647-0.347-1.334-0.632-2.049-0.849l-1.558-4.378C17.165,0.708,16.588,0.667,16,0.667s-1.166,0.041-1.737,0.105L12.707,5.15c-0.716,0.217-1.401,0.502-2.05,0.849L6.464,4.005C5.554,4.73,4.73,5.554,4.005,6.464l1.994,4.192c-0.347,0.648-0.632,1.334-0.849,2.05l-4.378,1.557C0.708,14.834,0.667,15.412,0.667,16s0.041,1.165,0.105,1.736l4.378,1.558c0.217,0.715,0.502,1.401,0.849,2.049l-1.994,4.193c0.725,0.909,1.549,1.733,2.459,2.458l4.192-1.993c0.648,0.347,1.334,0.633,2.05,0.851l1.557,4.377c0.571,0.064,1.148,0.104,1.737,0.104c0.588,0,1.165-0.04,1.736-0.104l1.558-4.377c0.715-0.218,1.399-0.504,2.049-0.851l4.193,1.993c0.909-0.725,1.733-1.549,2.458-2.458l-1.993-4.193c0.347-0.647,0.633-1.334,0.851-2.049L31.229,17.736zM16,20.871c-2.69,0-4.872-2.182-4.872-4.871c0-2.69,2.182-4.872,4.872-4.872c2.689,0,4.871,2.182,4.871,4.872C20.871,18.689,18.689,20.871,16,20.871z" transform="scale(.55) translate(29, -16)"/><title>Link options.</title></g></g></g></g><g id="j_1129"><path id="v-17106" fill="none" stroke="#505050" stroke-width="2" d="M 1532 600 L 1560 771 C 1561.3333333333333 777.6666666666666 1564.6666666666665 783 1570 787 L 1667 855" style="opacity:1"/><path fill="#000" stroke="#000" d="M 0 0 0 0" transform="matrix(0.16314364969730377,0.9866023063659668,-0.9866023063659668,0.16314364969730377,1532.0699462890625,600)"/><path id="v-17108" fill="#505050" stroke="#505050" d="M 20 0 L 0 10 L 20 20 z" transform="matrix(-0.8166738152503967,-0.5770995020866394,0.5770995020866394,-0.8166738152503967,1660.948974609375,863.166748046875)" style="opacity:1"/><path id="v-17107" fill="none" d="M 1532 600 L 1560 771 C 1561.3333333333333 777.6666666666666 1564.6666666666665 783 1570 787 L 1667 855" style="cursor:default"/><g><g id="v-17100" cursor="move" label-idx="0" transform="matrix(1,0,0,1,1557.1317138671875,753.4829711914062)" style="cursor:default;opacity:1"><rect id="v-17103" width="58.86" height="34.001" fill="#111" joint-selector="rect" pointer-events="none" rx="3" ry="3" transform="matrix(1,0,0,1,-29.399999618530273,-17)"/><text id="v-17102" y=".8em" fill="#505050" font-family="Open Sans" font-size="24" font-weight="normal" joint-selector="text" pointer-events="none" text-anchor="middle" transform="matrix(1,0,0,1,0,-9.800000190734863)" xml:space="preserve"><tspan dy="0">Uses</tspan></text></g><g id="v-17101" cursor="move" label-idx="1" transform="matrix(1,0,0,1,1547.1317138671875,779.8829956054688)" style="cursor:default;opacity:1"><rect id="v-17105" width="0" height="0" fill="#fff" display="none" joint-selector="rect" rx="3" ry="3" transform="matrix(1,0,0,1,0,0)"/></g></g><g display="none"><g id="v-17097" transform="translate(1562, 781)"><circle r="10" idx="0"/><path d="M16,5.333c-7.732,0-14,4.701-14,10.5c0,1.982,0.741,3.833,2.016,5.414L2,25.667l5.613-1.441c2.339,1.317,5.237,2.107,8.387,2.107c7.732,0,14-4.701,14-10.5C30,10.034,23.732,5.333,16,5.333z" idx="0" transform="translate(5, -33)"/><path d="M24.778,21.419 19.276,15.917 24.777,10.415 21.949,7.585 16.447,13.087 10.945,7.585 8.117,10.415 13.618,15.917 8.116,21.419 10.946,24.248 16.447,18.746 21.948,24.248z" idx="0" transform="scale(.8) translate(9.5, -37)"><title>Remove vertex.</title></path></g></g><g id="v-17110" display="none"><g id="v-17098"><path d="M 26 0 L 0 13 L 26 26 z" end="source"/></g><g id="v-17099"><path d="M 26 0 L 0 13 L 26 26 z" end="target"/></g></g><g id="v-17109" display="none"><g id="v-17096"><g event="remove" transform="translate(1538.4636303964373, 639.4743142068137)"><circle r="11"/><path d="M24.778,21.419 19.276,15.917 24.777,10.415 21.949,7.585 16.447,13.087 10.945,7.585 8.117,10.415 13.618,15.917 8.116,21.419 10.946,24.248 16.447,18.746 21.948,24.248z" transform="scale(.8) translate(-16, -16)"/><title>Remove link.</title></g><g event="link:options" transform="translate(1538.4636303964373, 639.4743142068137)"><circle r="11" transform="translate(25)"/><path fill="#fff" d="M31.229,17.736c0.064-0.571,0.104-1.148,0.104-1.736s-0.04-1.166-0.104-1.737l-4.377-1.557c-0.218-0.716-0.504-1.401-0.851-2.05l1.993-4.192c-0.725-0.91-1.549-1.734-2.458-2.459l-4.193,1.994c-0.647-0.347-1.334-0.632-2.049-0.849l-1.558-4.378C17.165,0.708,16.588,0.667,16,0.667s-1.166,0.041-1.737,0.105L12.707,5.15c-0.716,0.217-1.401,0.502-2.05,0.849L6.464,4.005C5.554,4.73,4.73,5.554,4.005,6.464l1.994,4.192c-0.347,0.648-0.632,1.334-0.849,2.05l-4.378,1.557C0.708,14.834,0.667,15.412,0.667,16s0.041,1.165,0.105,1.736l4.378,1.558c0.217,0.715,0.502,1.401,0.849,2.049l-1.994,4.193c0.725,0.909,1.549,1.733,2.459,2.458l4.192-1.993c0.648,0.347,1.334,0.633,2.05,0.851l1.557,4.377c0.571,0.064,1.148,0.104,1.737,0.104c0.588,0,1.165-0.04,1.736-0.104l1.558-4.377c0.715-0.218,1.399-0.504,2.049-0.851l4.193,1.993c0.909-0.725,1.733-1.549,2.458-2.458l-1.993-4.193c0.347-0.647,0.633-1.334,0.851-2.049L31.229,17.736zM16,20.871c-2.69,0-4.872-2.182-4.872-4.871c0-2.69,2.182-4.872,4.872-4.872c2.689,0,4.871,2.182,4.871,4.872C20.871,18.689,18.689,20.871,16,20.871z" transform="scale(.55) translate(29, -16)"/><title>Link options.</title></g></g></g></g><g id="j_1130"><path id="v-17124" fill="none" stroke="#505050" stroke-width="2" d="M 2394 1262 L 2282 1157 C 2277.333333333333 1152.3333333333333 2272 1149 2266 1147 L 2104 1087" style="opacity:1"/><path fill="#000" stroke="#000" d="M 0 0 0 0" transform="matrix(-0.7284749746322632,-0.6850724220275879,0.6850724220275879,-0.7284749746322632,2394,1261.9100341796875)"/><path id="v-17126" fill="#505050" stroke="#505050" d="M 20 0 L 0 10 L 20 20 z" transform="matrix(0.939035952091217,0.34381893277168274,-0.34381893277168274,0.939035952091217,2107.438232421875,1077.999755859375)" style="opacity:1"/><path id="v-17125" fill="none" d="M 2394 1262 L 2282 1157 C 2277.333333333333 1152.3333333333333 2272 1149 2266 1147 L 2104 1087" style="cursor:default"/><g><g id="v-17115" cursor="move" label-idx="0" transform="matrix(1,0,0,1,2265.909423828125,1146.9664306640625)" style="cursor:default;opacity:1"><rect id="v-17119" width="139.968" height="34.001" fill="#111" joint-selector="rect" pointer-events="none" rx="3" ry="3" transform="matrix(1,0,0,1,-70,-17)"/><text id="v-17118" y=".8em" fill="#505050" font-family="Open Sans" font-size="24" font-weight="normal" joint-selector="text" pointer-events="none" text-anchor="middle" transform="matrix(1,0,0,1,0,-9.800000190734863)" xml:space="preserve"><tspan dy="0">Sends email</tspan></text></g><g id="v-17116" cursor="move" label-idx="1" transform="matrix(1,0,0,1,2265.909423828125,1173.366455078125)" style="cursor:default;opacity:1"><rect id="v-17121" width="231.483" height="24.862" fill="#111" joint-selector="rect" pointer-events="none" rx="3" ry="3" transform="matrix(1,0,0,1,-115.69999694824219,-12.399999618530273)"/><text id="v-17120" y=".8em" fill="#505050" font-family="Open Sans" font-size="17" font-weight="normal" joint-selector="text" pointer-events="none" text-anchor="middle" transform="matrix(1,0,0,1,0,-6.900000095367432)" xml:space="preserve"><tspan dy="0">[SMTP via user&apos;s email mask]</tspan></text></g><g id="v-17117" cursor="move" label-idx="2" transform="matrix(1,0,0,1,2255.909423828125,1181.7664794921875)" style="cursor:default;opacity:1"><rect id="v-17123" width="0" height="0" fill="#fff" display="none" joint-selector="rect" rx="3" ry="3" transform="matrix(1,0,0,1,0,0)"/></g></g><g display="none"><g id="v-17112" transform="translate(2275, 1150)"><circle r="10" idx="0"/><path d="M16,5.333c-7.732,0-14,4.701-14,10.5c0,1.982,0.741,3.833,2.016,5.414L2,25.667l5.613-1.441c2.339,1.317,5.237,2.107,8.387,2.107c7.732,0,14-4.701,14-10.5C30,10.034,23.732,5.333,16,5.333z" idx="0" transform="translate(5, -33)"/><path d="M24.778,21.419 19.276,15.917 24.777,10.415 21.949,7.585 16.447,13.087 10.945,7.585 8.117,10.415 13.618,15.917 8.116,21.419 10.946,24.248 16.447,18.746 21.948,24.248z" idx="0" transform="scale(.8) translate(9.5, -37)"><title>Remove vertex.</title></path></g></g><g id="v-17128" display="none"><g id="v-17113"><path d="M 26 0 L 0 13 L 26 26 z" end="source"/></g><g id="v-17114"><path d="M 26 0 L 0 13 L 26 26 z" end="target"/></g></g><g id="v-17127" display="none"><g id="v-17111"><g event="remove" transform="translate(2364.8185118343968, 1234.6423548447467)"><circle r="11"/><path d="M24.778,21.419 19.276,15.917 24.777,10.415 21.949,7.585 16.447,13.087 10.945,7.585 8.117,10.415 13.618,15.917 8.116,21.419 10.946,24.248 16.447,18.746 21.948,24.248z" transform="scale(.8) translate(-16, -16)"/><title>Remove link.</title></g><g event="link:options" transform="translate(2364.8185118343968, 1234.6423548447467)"><circle r="11" transform="translate(25)"/><path fill="#fff" d="M31.229,17.736c0.064-0.571,0.104-1.148,0.104-1.736s-0.04-1.166-0.104-1.737l-4.377-1.557c-0.218-0.716-0.504-1.401-0.851-2.05l1.993-4.192c-0.725-0.91-1.549-1.734-2.458-2.459l-4.193,1.994c-0.647-0.347-1.334-0.632-2.049-0.849l-1.558-4.378C17.165,0.708,16.588,0.667,16,0.667s-1.166,0.041-1.737,0.105L12.707,5.15c-0.716,0.217-1.401,0.502-2.05,0.849L6.464,4.005C5.554,4.73,4.73,5.554,4.005,6.464l1.994,4.192c-0.347,0.648-0.632,1.334-0.849,2.05l-4.378,1.557C0.708,14.834,0.667,15.412,0.667,16s0.041,1.165,0.105,1.736l4.378,1.558c0.217,0.715,0.502,1.401,0.849,2.049l-1.994,4.193c0.725,0.909,1.549,1.733,2.459,2.458l4.192-1.993c0.648,0.347,1.334,0.633,2.05,0.851l1.557,4.377c0.571,0.064,1.148,0.104,1.737,0.104c0.588,0,1.165-0.04,1.736-0.104l1.558-4.377c0.715-0.218,1.399-0.504,2.049-0.851l4.193,1.993c0.909-0.725,1.733-1.549,2.458-2.458l-1.993-4.193c0.347-0.647,0.633-1.334,0.851-2.049L31.229,17.736zM16,20.871c-2.69,0-4.872-2.182-4.872-4.871c0-2.69,2.182-4.872,4.872-4.872c2.689,0,4.871,2.182,4.871,4.872C20.871,18.689,18.689,20.871,16,20.871z" transform="scale(.55) translate(29, -16)"/><title>Link options.</title></g></g></g></g><g id="j_1131"><path id="v-17145" fill="none" stroke="#505050" stroke-width="2" d="M 2394 789 L 2270 757 C 2263.333333333333 755.6666666666666 2257.333333333333 756.6666666666666 2252 760 L 2104 857" style="opacity:1"/><path fill="#000" stroke="#000" d="M 0 0 0 0" transform="matrix(-0.9691128730773926,-0.2466176301240921,0.2466176301240921,-0.9691128730773926,2394,789.0999755859375)"/><path id="v-17147" fill="#505050" stroke="#505050" d="M 20 0 L 0 10 L 20 20 z" transform="matrix(0.8360849022865295,-0.5486000776290894,0.5486000776290894,0.8360849022865295,2098.513916015625,848.9991455078125)" style="opacity:1"/><path id="v-17146" fill="none" d="M 2394 789 L 2270 757 C 2263.333333333333 755.6666666666666 2257.333333333333 756.6666666666666 2252 760 L 2104 857" style="cursor:default"/><g><g id="v-17136" cursor="move" label-idx="0" transform="matrix(1,0,0,1,2239.3798828125,768.271240234375)" style="cursor:default;opacity:1"><rect id="v-17140" width="139.641" height="62.801" fill="#111" joint-selector="rect" pointer-events="none" rx="3" ry="3" transform="matrix(1,0,0,1,-69.80000305175781,-31.399999618530273)"/><text id="v-17139" y=".8em" fill="#505050" font-family="Open Sans" font-size="24" font-weight="normal" joint-selector="text" pointer-events="none" text-anchor="middle" transform="matrix(1,0,0,1,0,-24.200000762939453)" xml:space="preserve"><tspan dy="0">Sends texts,</tspan><tspan x="0" dy="1.2em">starts calls</tspan></text></g><g id="v-17137" cursor="move" label-idx="1" transform="matrix(1,0,0,1,2239.3798828125,809.0712280273438)" style="cursor:default;opacity:1"><rect id="v-17142" width="236.69" height="24.862" fill="#111" joint-selector="rect" pointer-events="none" rx="3" ry="3" transform="matrix(1,0,0,1,-118.30000305175781,-12.399999618530273)"/><text id="v-17141" y=".8em" fill="#505050" font-family="Open Sans" font-size="17" font-weight="normal" joint-selector="text" pointer-events="none" text-anchor="middle" transform="matrix(1,0,0,1,0,-6.900000095367432)" xml:space="preserve"><tspan dy="0">[PSTN via user&apos;s phone mask]</tspan></text></g><g id="v-17138" cursor="move" label-idx="2" transform="matrix(1,0,0,1,2229.3798828125,817.4712524414062)" style="cursor:default;opacity:1"><rect id="v-17144" width="0" height="0" fill="#fff" display="none" joint-selector="rect" rx="3" ry="3" transform="matrix(1,0,0,1,0,0)"/></g></g><g display="none"><g id="v-17133" transform="translate(2260, 755)"><circle r="10" idx="0"/><path d="M16,5.333c-7.732,0-14,4.701-14,10.5c0,1.982,0.741,3.833,2.016,5.414L2,25.667l5.613-1.441c2.339,1.317,5.237,2.107,8.387,2.107c7.732,0,14-4.701,14-10.5C30,10.034,23.732,5.333,16,5.333z" idx="0" transform="translate(5, -33)"/><path d="M24.778,21.419 19.276,15.917 24.777,10.415 21.949,7.585 16.447,13.087 10.945,7.585 8.117,10.415 13.618,15.917 8.116,21.419 10.946,24.248 16.447,18.746 21.948,24.248z" idx="0" transform="scale(.8) translate(9.5, -37)"><title>Remove vertex.</title></path></g></g><g id="v-17149" display="none"><g id="v-17134"><path d="M 26 0 L 0 13 L 26 26 z" end="source"/></g><g id="v-17135"><path d="M 26 0 L 0 13 L 26 26 z" end="target"/></g></g><g id="v-17148" display="none"><g id="v-17132"><g event="remove" transform="translate(2355.268907051626, 779.0048792391292)"><circle r="11"/><path d="M24.778,21.419 19.276,15.917 24.777,10.415 21.949,7.585 16.447,13.087 10.945,7.585 8.117,10.415 13.618,15.917 8.116,21.419 10.946,24.248 16.447,18.746 21.948,24.248z" transform="scale(.8) translate(-16, -16)"/><title>Remove link.</title></g><g event="link:options" transform="translate(2355.268907051626, 779.0048792391292)"><circle r="11" transform="translate(25)"/><path fill="#fff" d="M31.229,17.736c0.064-0.571,0.104-1.148,0.104-1.736s-0.04-1.166-0.104-1.737l-4.377-1.557c-0.218-0.716-0.504-1.401-0.851-2.05l1.993-4.192c-0.725-0.91-1.549-1.734-2.458-2.459l-4.193,1.994c-0.647-0.347-1.334-0.632-2.049-0.849l-1.558-4.378C17.165,0.708,16.588,0.667,16,0.667s-1.166,0.041-1.737,0.105L12.707,5.15c-0.716,0.217-1.401,0.502-2.05,0.849L6.464,4.005C5.554,4.73,4.73,5.554,4.005,6.464l1.994,4.192c-0.347,0.648-0.632,1.334-0.849,2.05l-4.378,1.557C0.708,14.834,0.667,15.412,0.667,16s0.041,1.165,0.105,1.736l4.378,1.558c0.217,0.715,0.502,1.401,0.849,2.049l-1.994,4.193c0.725,0.909,1.549,1.733,2.459,2.458l4.192-1.993c0.648,0.347,1.334,0.633,2.05,0.851l1.557,4.377c0.571,0.064,1.148,0.104,1.737,0.104c0.588,0,1.165-0.04,1.736-0.104l1.558-4.377c0.715-0.218,1.399-0.504,2.049-0.851l4.193,1.993c0.909-0.725,1.733-1.549,2.458-2.458l-1.993-4.193c0.347-0.647,0.633-1.334,0.851-2.049L31.229,17.736zM16,20.871c-2.69,0-4.872-2.182-4.872-4.871c0-2.69,2.182-4.872,4.872-4.872c2.689,0,4.871,2.182,4.871,4.872C20.871,18.689,18.689,20.871,16,20.871z" transform="scale(.55) translate(29, -16)"/><title>Link options.</title></g></g></g></g><g id="j_1132"><path id="v-17166" fill="none" stroke="#505050" stroke-width="2" d="M 1854 855 L 1817 632 C 1815.6666666666665 625.3333333333333 1812.3333333333333 620 1807 616 L 1699 541" style="opacity:1"/><path fill="#000" stroke="#000" d="M 0 0 0 0" transform="matrix(-0.16479702293872833,-0.9863275289535522,0.9863275289535522,-0.16479702293872833,1853.9300537109375,855)"/><path id="v-17168" fill="#505050" stroke="#505050" d="M 20 0 L 0 10 L 20 20 z" transform="matrix(0.8182697296142578,0.5748344659805298,-0.5748344659805298,0.8182697296142578,1704.7484130859375,532.3273315429688)" style="opacity:1"/><path id="v-17167" fill="none" d="M 1854 855 L 1817 632 C 1815.6666666666665 625.3333333333333 1812.3333333333333 620 1807 616 L 1699 541" style="cursor:default"/><g><g id="v-17157" cursor="move" label-idx="0" transform="matrix(1,0,0,1,1823.1580810546875,669.115234375)" style="cursor:default;opacity:1"><rect id="v-17161" width="177" height="34.001" fill="#111" joint-selector="rect" pointer-events="none" rx="3" ry="3" transform="matrix(1,0,0,1,-88.5,-17)"/><text id="v-17160" y=".8em" fill="#505050" font-family="Open Sans" font-size="24" font-weight="normal" joint-selector="text" pointer-events="none" text-anchor="middle" transform="matrix(1,0,0,1,0,-9.800000190734863)" xml:space="preserve"><tspan dy="0">Forwards email</tspan></text></g><g id="v-17158" cursor="move" label-idx="1" transform="matrix(1,0,0,1,1823.1580810546875,695.5152587890625)" style="cursor:default;opacity:1"><rect id="v-17163" width="219.513" height="24.862" fill="#111" joint-selector="rect" pointer-events="none" rx="3" ry="3" transform="matrix(1,0,0,1,-109.80000305175781,-12.399999618530273)"/><text id="v-17162" y=".8em" fill="#505050" font-family="Open Sans" font-size="17" font-weight="normal" joint-selector="text" pointer-events="none" text-anchor="middle" transform="matrix(1,0,0,1,0,-6.900000095367432)" xml:space="preserve"><tspan dy="0">[SMTP via user&apos;s real email]</tspan></text></g><g id="v-17159" cursor="move" label-idx="2" transform="matrix(1,0,0,1,1813.1580810546875,703.915283203125)" style="cursor:default;opacity:1"><rect id="v-17165" width="0" height="0" fill="#fff" display="none" joint-selector="rect" rx="3" ry="3" transform="matrix(1,0,0,1,0,0)"/></g></g><g display="none"><g id="v-17154" transform="translate(1815, 622)"><circle r="10" idx="0"/><path d="M16,5.333c-7.732,0-14,4.701-14,10.5c0,1.982,0.741,3.833,2.016,5.414L2,25.667l5.613-1.441c2.339,1.317,5.237,2.107,8.387,2.107c7.732,0,14-4.701,14-10.5C30,10.034,23.732,5.333,16,5.333z" idx="0" transform="translate(5, -33)"/><path d="M24.778,21.419 19.276,15.917 24.777,10.415 21.949,7.585 16.447,13.087 10.945,7.585 8.117,10.415 13.618,15.917 8.116,21.419 10.946,24.248 16.447,18.746 21.948,24.248z" idx="0" transform="scale(.8) translate(9.5, -37)"><title>Remove vertex.</title></path></g></g><g id="v-17170" display="none"><g id="v-17155"><path d="M 26 0 L 0 13 L 26 26 z" end="source"/></g><g id="v-17156"><path d="M 26 0 L 0 13 L 26 26 z" end="target"/></g></g><g id="v-17169" display="none"><g id="v-17153"><g event="remove" transform="translate(1847.452737335259, 815.539470966561)"><circle r="11"/><path d="M24.778,21.419 19.276,15.917 24.777,10.415 21.949,7.585 16.447,13.087 10.945,7.585 8.117,10.415 13.618,15.917 8.116,21.419 10.946,24.248 16.447,18.746 21.948,24.248z" transform="scale(.8) translate(-16, -16)"/><title>Remove link.</title></g><g event="link:options" transform="translate(1847.452737335259, 815.539470966561)"><circle r="11" transform="translate(25)"/><path fill="#fff" d="M31.229,17.736c0.064-0.571,0.104-1.148,0.104-1.736s-0.04-1.166-0.104-1.737l-4.377-1.557c-0.218-0.716-0.504-1.401-0.851-2.05l1.993-4.192c-0.725-0.91-1.549-1.734-2.458-2.459l-4.193,1.994c-0.647-0.347-1.334-0.632-2.049-0.849l-1.558-4.378C17.165,0.708,16.588,0.667,16,0.667s-1.166,0.041-1.737,0.105L12.707,5.15c-0.716,0.217-1.401,0.502-2.05,0.849L6.464,4.005C5.554,4.73,4.73,5.554,4.005,6.464l1.994,4.192c-0.347,0.648-0.632,1.334-0.849,2.05l-4.378,1.557C0.708,14.834,0.667,15.412,0.667,16s0.041,1.165,0.105,1.736l4.378,1.558c0.217,0.715,0.502,1.401,0.849,2.049l-1.994,4.193c0.725,0.909,1.549,1.733,2.459,2.458l4.192-1.993c0.648,0.347,1.334,0.633,2.05,0.851l1.557,4.377c0.571,0.064,1.148,0.104,1.737,0.104c0.588,0,1.165-0.04,1.736-0.104l1.558-4.377c0.715-0.218,1.399-0.504,2.049-0.851l4.193,1.993c0.909-0.725,1.733-1.549,2.458-2.458l-1.993-4.193c0.347-0.647,0.633-1.334,0.851-2.049L31.229,17.736zM16,20.871c-2.69,0-4.872-2.182-4.872-4.871c0-2.69,2.182-4.872,4.872-4.872c2.689,0,4.871,2.182,4.871,4.872C20.871,18.689,18.689,20.871,16,20.871z" transform="scale(.55) translate(29, -16)"/><title>Link options.</title></g></g></g></g><g id="j_1133"><path id="v-17187" fill="none" stroke="#505050" stroke-width="2" d="M 2062 1155 L 2212 1279 C 2217.333333333333 1283 2223 1286.3333333333333 2229 1289 L 2394 1362" style="opacity:1"/><path fill="#000" stroke="#000" d="M 0 0 0 0" transform="matrix(0.772842526435852,0.6345978379249573,-0.6345978379249573,0.772842526435852,2061.679931640625,1155)"/><path id="v-17189" fill="#505050" stroke="#505050" d="M 20 0 L 0 10 L 20 20 z" transform="matrix(-0.9149269461631775,-0.4036194086074829,0.4036194086074829,-0.9149269461631775,2389.9638671875,1370.9091796875)" style="opacity:1"/><path id="v-17188" fill="none" d="M 2062 1155 L 2212 1279 C 2217.333333333333 1283 2223 1286.3333333333333 2229 1289 L 2394 1362" style="cursor:default"/><g><g id="v-17178" cursor="move" label-idx="0" transform="matrix(1,0,0,1,2214.269775390625,1280.64794921875)" style="cursor:default;opacity:1"><rect id="v-17182" width="153.774" height="34.001" fill="#111" joint-selector="rect" pointer-events="none" rx="3" ry="3" transform="matrix(1,0,0,1,-76.9000015258789,-17)"/><text id="v-17181" y=".8em" fill="#505050" font-family="Open Sans" font-size="24" font-weight="normal" joint-selector="text" pointer-events="none" text-anchor="middle" transform="matrix(1,0,0,1,0,-9.800000190734863)" xml:space="preserve"><tspan dy="0">Sends replies</tspan></text></g><g id="v-17179" cursor="move" label-idx="1" transform="matrix(1,0,0,1,2214.269775390625,1307.0479736328125)" style="cursor:default;opacity:1"><rect id="v-17184" width="231.483" height="24.862" fill="#111" joint-selector="rect" pointer-events="none" rx="3" ry="3" transform="matrix(1,0,0,1,-115.69999694824219,-12.399999618530273)"/><text id="v-17183" y=".8em" fill="#505050" font-family="Open Sans" font-size="17" font-weight="normal" joint-selector="text" pointer-events="none" text-anchor="middle" transform="matrix(1,0,0,1,0,-6.900000095367432)" xml:space="preserve"><tspan dy="0">[SMTP via user&apos;s email mask]</tspan></text></g><g id="v-17180" cursor="move" label-idx="2" transform="matrix(1,0,0,1,2204.269775390625,1315.447998046875)" style="cursor:default;opacity:1"><rect id="v-17186" width="0" height="0" fill="#fff" display="none" joint-selector="rect" rx="3" ry="3" transform="matrix(1,0,0,1,0,0)"/></g></g><g display="none"><g id="v-17175" transform="translate(2220, 1285)"><circle r="10" idx="0"/><path d="M16,5.333c-7.732,0-14,4.701-14,10.5c0,1.982,0.741,3.833,2.016,5.414L2,25.667l5.613-1.441c2.339,1.317,5.237,2.107,8.387,2.107c7.732,0,14-4.701,14-10.5C30,10.034,23.732,5.333,16,5.333z" idx="0" transform="translate(5, -33)"/><path d="M24.778,21.419 19.276,15.917 24.777,10.415 21.949,7.585 16.447,13.087 10.945,7.585 8.117,10.415 13.618,15.917 8.116,21.419 10.946,24.248 16.447,18.746 21.948,24.248z" idx="0" transform="scale(.8) translate(9.5, -37)"><title>Remove vertex.</title></path></g></g><g id="v-17191" display="none"><g id="v-17176"><path d="M 26 0 L 0 13 L 26 26 z" end="source"/></g><g id="v-17177"><path d="M 26 0 L 0 13 L 26 26 z" end="target"/></g></g><g id="v-17190" display="none"><g id="v-17174"><g event="remove" transform="translate(2092.8296927423653, 1180.485879333689)"><circle r="11"/><path d="M24.778,21.419 19.276,15.917 24.777,10.415 21.949,7.585 16.447,13.087 10.945,7.585 8.117,10.415 13.618,15.917 8.116,21.419 10.946,24.248 16.447,18.746 21.948,24.248z" transform="scale(.8) translate(-16, -16)"/><title>Remove link.</title></g><g event="link:options" transform="translate(2092.8296927423653, 1180.485879333689)"><circle r="11" transform="translate(25)"/><path fill="#fff" d="M31.229,17.736c0.064-0.571,0.104-1.148,0.104-1.736s-0.04-1.166-0.104-1.737l-4.377-1.557c-0.218-0.716-0.504-1.401-0.851-2.05l1.993-4.192c-0.725-0.91-1.549-1.734-2.458-2.459l-4.193,1.994c-0.647-0.347-1.334-0.632-2.049-0.849l-1.558-4.378C17.165,0.708,16.588,0.667,16,0.667s-1.166,0.041-1.737,0.105L12.707,5.15c-0.716,0.217-1.401,0.502-2.05,0.849L6.464,4.005C5.554,4.73,4.73,5.554,4.005,6.464l1.994,4.192c-0.347,0.648-0.632,1.334-0.849,2.05l-4.378,1.557C0.708,14.834,0.667,15.412,0.667,16s0.041,1.165,0.105,1.736l4.378,1.558c0.217,0.715,0.502,1.401,0.849,2.049l-1.994,4.193c0.725,0.909,1.549,1.733,2.459,2.458l4.192-1.993c0.648,0.347,1.334,0.633,2.05,0.851l1.557,4.377c0.571,0.064,1.148,0.104,1.737,0.104c0.588,0,1.165-0.04,1.736-0.104l1.558-4.377c0.715-0.218,1.399-0.504,2.049-0.851l4.193,1.993c0.909-0.725,1.733-1.549,2.458-2.458l-1.993-4.193c0.347-0.647,0.633-1.334,0.851-2.049L31.229,17.736zM16,20.871c-2.69,0-4.872-2.182-4.872-4.871c0-2.69,2.182-4.872,4.872-4.872c2.689,0,4.871,2.182,4.871,4.872C20.871,18.689,18.689,20.871,16,20.871z" transform="scale(.55) translate(29, -16)"/><title>Link options.</title></g></g></g></g><g id="j_1134"><path id="v-17208" fill="none" stroke="#505050" stroke-width="2" d="M 2104 996 L 2245 990 C 2251.6666666666665 990 2258 988.6666666666666 2264 986 L 2394 929" style="opacity:1"/><path fill="#000" stroke="#000" d="M 0 0 0 0" transform="matrix(0.9992062449455261,-0.039835672825574875,0.039835672825574875,0.9992062449455261,2104,996.02001953125)"/><path id="v-17210" fill="#505050" stroke="#505050" d="M 20 0 L 0 10 L 20 20 z" transform="matrix(-0.9144884943962097,0.40461185574531555,-0.40461185574531555,-0.9144884943962097,2398.046142578125,937.6448974609375)" style="opacity:1"/><path id="v-17209" fill="none" d="M 2104 996 L 2245 990 C 2251.6666666666665 990 2258 988.6666666666666 2264 986 L 2394 929" style="cursor:default"/><g><g id="v-17199" cursor="move" label-idx="0" transform="matrix(1,0,0,1,2255.12060546875,988.9203491210938)" style="cursor:default;opacity:1"><rect id="v-17203" width="195.75" height="34.001" fill="#111" joint-selector="rect" pointer-events="none" rx="3" ry="3" transform="matrix(1,0,0,1,-97.9000015258789,-17)"/><text id="v-17202" y=".8em" fill="#505050" font-family="Open Sans" font-size="24" font-weight="normal" joint-selector="text" pointer-events="none" text-anchor="middle" transform="matrix(1,0,0,1,0,-9.800000190734863)" xml:space="preserve"><tspan dy="0">Sends reply texts</tspan></text></g><g id="v-17200" cursor="move" label-idx="1" transform="matrix(1,0,0,1,2255.12060546875,1015.3203735351562)" style="cursor:default;opacity:1"><rect id="v-17205" width="236.69" height="24.862" fill="#111" joint-selector="rect" pointer-events="none" rx="3" ry="3" transform="matrix(1,0,0,1,-118.30000305175781,-12.399999618530273)"/><text id="v-17204" y=".8em" fill="#505050" font-family="Open Sans" font-size="17" font-weight="normal" joint-selector="text" pointer-events="none" text-anchor="middle" transform="matrix(1,0,0,1,0,-6.900000095367432)" xml:space="preserve"><tspan dy="0">[PSTN via user&apos;s phone mask]</tspan></text></g><g id="v-17201" cursor="move" label-idx="2" transform="matrix(1,0,0,1,2245.12060546875,1023.7203369140625)" style="cursor:default;opacity:1"><rect id="v-17207" width="0" height="0" fill="#fff" display="none" joint-selector="rect" rx="3" ry="3" transform="matrix(1,0,0,1,0,0)"/></g></g><g display="none"><g id="v-17196" transform="translate(2255, 990)"><circle r="10" idx="0"/><path d="M16,5.333c-7.732,0-14,4.701-14,10.5c0,1.982,0.741,3.833,2.016,5.414L2,25.667l5.613-1.441c2.339,1.317,5.237,2.107,8.387,2.107c7.732,0,14-4.701,14-10.5C30,10.034,23.732,5.333,16,5.333z" idx="0" transform="translate(5, -33)"/><path d="M24.778,21.419 19.276,15.917 24.777,10.415 21.949,7.585 16.447,13.087 10.945,7.585 8.117,10.415 13.618,15.917 8.116,21.419 10.946,24.248 16.447,18.746 21.948,24.248z" idx="0" transform="scale(.8) translate(9.5, -37)"><title>Remove vertex.</title></path></g></g><g id="v-17212" display="none"><g id="v-17197"><path d="M 26 0 L 0 13 L 26 26 z" end="source"/></g><g id="v-17198"><path d="M 26 0 L 0 13 L 26 26 z" end="target"/></g></g><g id="v-17211" display="none"><g id="v-17195"><g event="remove" transform="translate(2143.9638336273247, 994.2994113350074)"><circle r="11"/><path d="M24.778,21.419 19.276,15.917 24.777,10.415 21.949,7.585 16.447,13.087 10.945,7.585 8.117,10.415 13.618,15.917 8.116,21.419 10.946,24.248 16.447,18.746 21.948,24.248z" transform="scale(.8) translate(-16, -16)"/><title>Remove link.</title></g><g event="link:options" transform="translate(2143.9638336273247, 994.2994113350074)"><circle r="11" transform="translate(25)"/><path fill="#fff" d="M31.229,17.736c0.064-0.571,0.104-1.148,0.104-1.736s-0.04-1.166-0.104-1.737l-4.377-1.557c-0.218-0.716-0.504-1.401-0.851-2.05l1.993-4.192c-0.725-0.91-1.549-1.734-2.458-2.459l-4.193,1.994c-0.647-0.347-1.334-0.632-2.049-0.849l-1.558-4.378C17.165,0.708,16.588,0.667,16,0.667s-1.166,0.041-1.737,0.105L12.707,5.15c-0.716,0.217-1.401,0.502-2.05,0.849L6.464,4.005C5.554,4.73,4.73,5.554,4.005,6.464l1.994,4.192c-0.347,0.648-0.632,1.334-0.849,2.05l-4.378,1.557C0.708,14.834,0.667,15.412,0.667,16s0.041,1.165,0.105,1.736l4.378,1.558c0.217,0.715,0.502,1.401,0.849,2.049l-1.994,4.193c0.725,0.909,1.549,1.733,2.459,2.458l4.192-1.993c0.648,0.347,1.334,0.633,2.05,0.851l1.557,4.377c0.571,0.064,1.148,0.104,1.737,0.104c0.588,0,1.165-0.04,1.736-0.104l1.558-4.377c0.715-0.218,1.399-0.504,2.049-0.851l4.193,1.993c0.909-0.725,1.733-1.549,2.458-2.458l-1.993-4.193c0.347-0.647,0.633-1.334,0.851-2.049L31.229,17.736zM16,20.871c-2.69,0-4.872-2.182-4.872-4.871c0-2.69,2.182-4.872,4.872-4.872c2.689,0,4.871,2.182,4.871,4.872C20.871,18.689,18.689,20.871,16,20.871z" transform="scale(.55) translate(29, -16)"/><title>Link options.</title></g></g></g></g><g id="j_1135"><path id="v-17228" fill="none" stroke="#505050" stroke-width="2" d="M 1670 1155 L 1203 1489" style="opacity:1"/><path fill="#000" stroke="#000" d="M 0 0 0 0" transform="matrix(-0.8129315376281738,0.582359254360199,-0.582359254360199,-0.8129315376281738,1669.6199951171875,1155)"/><path id="v-17230" fill="#505050" stroke="#505050" d="M 20 0 L 0 10 L 20 20 z" transform="matrix(0.8129316568374634,-0.5823590755462646,0.5823590755462646,0.8129316568374634,1197.556396484375,1480.87060546875)" style="opacity:1"/><path id="v-17229" fill="none" d="M 1670 1155 L 1203 1489" style="cursor:default"/><g><g id="v-17219" cursor="move" label-idx="0" transform="matrix(1,0,0,1,1436.5,1322)" style="cursor:default;opacity:1"><rect id="v-17223" width="143.839" height="62.801" fill="#111" joint-selector="rect" pointer-events="none" rx="3" ry="3" transform="matrix(1,0,0,1,-71.9000015258789,-31.399999618530273)"/><text id="v-17222" y=".8em" fill="#505050" font-family="Open Sans" font-size="24" font-weight="normal" joint-selector="text" pointer-events="none" text-anchor="middle" transform="matrix(1,0,0,1,0,-24.200000762939453)" xml:space="preserve"><tspan dy="0">Sends Glean</tspan><tspan x="0" dy="1.2em">events</tspan></text></g><g id="v-17220" cursor="move" label-idx="1" transform="matrix(1,0,0,1,1436.5,1362.800048828125)" style="cursor:default;opacity:1"><rect id="v-17225" width="168.052" height="24.862" fill="#111" joint-selector="rect" pointer-events="none" rx="3" ry="3" transform="matrix(1,0,0,1,-84,-12.399999618530273)"/><text id="v-17224" y=".8em" fill="#505050" font-family="Open Sans" font-size="17" font-weight="normal" joint-selector="text" pointer-events="none" text-anchor="middle" transform="matrix(1,0,0,1,0,-6.900000095367432)" xml:space="preserve"><tspan dy="0">[JSON over GCP SNS]</tspan></text></g><g id="v-17221" cursor="move" label-idx="2" transform="matrix(1,0,0,1,1426.5,1371.199951171875)" style="cursor:default;opacity:1"><rect id="v-17227" width="0" height="0" fill="#fff" display="none" joint-selector="rect" rx="3" ry="3" transform="matrix(1,0,0,1,0,0)"/></g></g><g id="v-17232" display="none"><g id="v-17217"><path d="M 26 0 L 0 13 L 26 26 z" end="source"/></g><g id="v-17218"><path d="M 26 0 L 0 13 L 26 26 z" end="target"/></g></g><g id="v-17231" display="none"><g id="v-17216"><g event="remove" transform="translate(1637.4647891587324, 1178.2692942633475)"><circle r="11"/><path d="M24.778,21.419 19.276,15.917 24.777,10.415 21.949,7.585 16.447,13.087 10.945,7.585 8.117,10.415 13.618,15.917 8.116,21.419 10.946,24.248 16.447,18.746 21.948,24.248z" transform="scale(.8) translate(-16, -16)"/><title>Remove link.</title></g><g event="link:options" transform="translate(1637.4647891587324, 1178.2692942633475)"><circle r="11" transform="translate(25)"/><path fill="#fff" d="M31.229,17.736c0.064-0.571,0.104-1.148,0.104-1.736s-0.04-1.166-0.104-1.737l-4.377-1.557c-0.218-0.716-0.504-1.401-0.851-2.05l1.993-4.192c-0.725-0.91-1.549-1.734-2.458-2.459l-4.193,1.994c-0.647-0.347-1.334-0.632-2.049-0.849l-1.558-4.378C17.165,0.708,16.588,0.667,16,0.667s-1.166,0.041-1.737,0.105L12.707,5.15c-0.716,0.217-1.401,0.502-2.05,0.849L6.464,4.005C5.554,4.73,4.73,5.554,4.005,6.464l1.994,4.192c-0.347,0.648-0.632,1.334-0.849,2.05l-4.378,1.557C0.708,14.834,0.667,15.412,0.667,16s0.041,1.165,0.105,1.736l4.378,1.558c0.217,0.715,0.502,1.401,0.849,2.049l-1.994,4.193c0.725,0.909,1.549,1.733,2.459,2.458l4.192-1.993c0.648,0.347,1.334,0.633,2.05,0.851l1.557,4.377c0.571,0.064,1.148,0.104,1.737,0.104c0.588,0,1.165-0.04,1.736-0.104l1.558-4.377c0.715-0.218,1.399-0.504,2.049-0.851l4.193,1.993c0.909-0.725,1.733-1.549,2.458-2.458l-1.993-4.193c0.347-0.647,0.633-1.334,0.851-2.049L31.229,17.736zM16,20.871c-2.69,0-4.872-2.182-4.872-4.871c0-2.69,2.182-4.872,4.872-4.872c2.689,0,4.871,2.182,4.871,4.872C20.871,18.689,18.689,20.871,16,20.871z" transform="scale(.55) translate(29, -16)"/><title>Link options.</title></g></g></g></g><g id="j_1136"><path id="v-17248" fill="none" stroke="#505050" stroke-width="2" d="M 1918 1155 L 2005 1489" style="opacity:1"/><path fill="#000" stroke="#000" d="M 0 0 0 0" transform="matrix(0.2518509030342102,0.9677660465240479,-0.9677660465240479,0.2518509030342102,1918.0400390625,1155)"/><path id="v-17250" fill="#505050" stroke="#505050" d="M 20 0 L 0 10 L 20 20 z" transform="matrix(-0.2518509030342102,-0.9677660465240479,0.9677660465240479,-0.2518509030342102,1995.2823486328125,1491.5185546875)" style="opacity:1"/><path id="v-17249" fill="none" d="M 1918 1155 L 2005 1489" style="cursor:default"/><g><g id="v-17239" cursor="move" label-idx="0" transform="matrix(1,0,0,1,1961.5,1322)" style="cursor:default;opacity:1"><rect id="v-17243" width="147.151" height="34.001" fill="#111" joint-selector="rect" pointer-events="none" rx="3" ry="3" transform="matrix(1,0,0,1,-73.5999984741211,-17)"/><text id="v-17242" y=".8em" fill="#505050" font-family="Open Sans" font-size="24" font-weight="normal" joint-selector="text" pointer-events="none" text-anchor="middle" transform="matrix(1,0,0,1,0,-9.800000190734863)" xml:space="preserve"><tspan dy="0">Pulls metrics</tspan></text></g><g id="v-17240" cursor="move" label-idx="1" transform="matrix(1,0,0,1,1961.5,1348.4000244140625)" style="cursor:default;opacity:1"><rect id="v-17245" width="112.2" height="24.862" fill="#111" joint-selector="rect" pointer-events="none" rx="3" ry="3" transform="matrix(1,0,0,1,-56.099998474121094,-12.399999618530273)"/><text id="v-17244" y=".8em" fill="#505050" font-family="Open Sans" font-size="17" font-weight="normal" joint-selector="text" pointer-events="none" text-anchor="middle" transform="matrix(1,0,0,1,0,-6.900000095367432)" xml:space="preserve"><tspan dy="0">[Prometheus]</tspan></text></g><g id="v-17241" cursor="move" label-idx="2" transform="matrix(1,0,0,1,1951.5,1356.800048828125)" style="cursor:default;opacity:1"><rect id="v-17247" width="0" height="0" fill="#fff" display="none" joint-selector="rect" rx="3" ry="3" transform="matrix(1,0,0,1,0,0)"/></g></g><g id="v-17252" display="none"><g id="v-17237"><path d="M 26 0 L 0 13 L 26 26 z" end="source"/></g><g id="v-17238"><path d="M 26 0 L 0 13 L 26 26 z" end="target"/></g></g><g id="v-17251" display="none"><g id="v-17236"><g event="remove" transform="translate(1928.0827218630632, 1193.7083804857825)"><circle r="11"/><path d="M24.778,21.419 19.276,15.917 24.777,10.415 21.949,7.585 16.447,13.087 10.945,7.585 8.117,10.415 13.618,15.917 8.116,21.419 10.946,24.248 16.447,18.746 21.948,24.248z" transform="scale(.8) translate(-16, -16)"/><title>Remove link.</title></g><g event="link:options" transform="translate(1928.0827218630632, 1193.7083804857825)"><circle r="11" transform="translate(25)"/><path fill="#fff" d="M31.229,17.736c0.064-0.571,0.104-1.148,0.104-1.736s-0.04-1.166-0.104-1.737l-4.377-1.557c-0.218-0.716-0.504-1.401-0.851-2.05l1.993-4.192c-0.725-0.91-1.549-1.734-2.458-2.459l-4.193,1.994c-0.647-0.347-1.334-0.632-2.049-0.849l-1.558-4.378C17.165,0.708,16.588,0.667,16,0.667s-1.166,0.041-1.737,0.105L12.707,5.15c-0.716,0.217-1.401,0.502-2.05,0.849L6.464,4.005C5.554,4.73,4.73,5.554,4.005,6.464l1.994,4.192c-0.347,0.648-0.632,1.334-0.849,2.05l-4.378,1.557C0.708,14.834,0.667,15.412,0.667,16s0.041,1.165,0.105,1.736l4.378,1.558c0.217,0.715,0.502,1.401,0.849,2.049l-1.994,4.193c0.725,0.909,1.549,1.733,2.459,2.458l4.192-1.993c0.648,0.347,1.334,0.633,2.05,0.851l1.557,4.377c0.571,0.064,1.148,0.104,1.737,0.104c0.588,0,1.165-0.04,1.736-0.104l1.558-4.377c0.715-0.218,1.399-0.504,2.049-0.851l4.193,1.993c0.909-0.725,1.733-1.549,2.458-2.458l-1.993-4.193c0.347-0.647,0.633-1.334,0.851-2.049L31.229,17.736zM16,20.871c-2.69,0-4.872-2.182-4.872-4.871c0-2.69,2.182-4.872,4.872-4.872c2.689,0,4.871,2.182,4.871,4.872C20.871,18.689,18.689,20.871,16,20.871z" transform="scale(.55) translate(29, -16)"/><title>Link options.</title></g></g></g></g><g id="j_1137"><path id="v-17265" fill="none" stroke="#505050" stroke-width="2" d="M 905 1059 L 649 1136" style="opacity:1"/><path fill="#000" stroke="#000" d="M 0 0 0 0" transform="matrix(-0.9566249847412109,0.291322261095047,-0.291322261095047,-0.9566249847412109,905,1058.52001953125)"/><path id="v-17267" fill="#505050" stroke="#505050" d="M 20 0 L 0 10 L 20 20 z" transform="matrix(0.9566249847412109,-0.291322261095047,0.291322261095047,0.9566249847412109,646.0867309570312,1126.9136962890625)" style="opacity:1"/><path id="v-17266" fill="none" d="M 905 1059 L 649 1136" style="cursor:default"/><g><g id="v-17256" cursor="move" label-idx="0" transform="matrix(1,0,0,1,777,1097.5)" style="cursor:default;opacity:1"><rect id="v-17260" width="58.86" height="34.001" fill="#111" joint-selector="rect" pointer-events="none" rx="3" ry="3" transform="matrix(1,0,0,1,-29.399999618530273,-17)"/><text id="v-17259" y=".8em" fill="#505050" font-family="Open Sans" font-size="24" font-weight="normal" joint-selector="text" pointer-events="none" text-anchor="middle" transform="matrix(1,0,0,1,0,-9.800000190734863)" xml:space="preserve"><tspan dy="0">Uses</tspan></text></g><g id="v-17257" cursor="move" label-idx="1" transform="matrix(1,0,0,1,777,1123.9000244140625)" style="cursor:default;opacity:1"><rect id="v-17262" width="151.3" height="24.862" fill="#111" joint-selector="rect" pointer-events="none" rx="3" ry="3" transform="matrix(1,0,0,1,-75.5999984741211,-12.399999618530273)"/><text id="v-17261" y=".8em" fill="#505050" font-family="Open Sans" font-size="17" font-weight="normal" joint-selector="text" pointer-events="none" text-anchor="middle" transform="matrix(1,0,0,1,0,-6.900000095367432)" xml:space="preserve"><tspan dy="0">[HTTPS, Stripe API]</tspan></text></g><g id="v-17258" cursor="move" label-idx="2" transform="matrix(1,0,0,1,767,1132.300048828125)" style="cursor:default;opacity:1"><rect id="v-17264" width="0" height="0" fill="#fff" display="none" joint-selector="rect" rx="3" ry="3" transform="matrix(1,0,0,1,0,0)"/></g></g><g id="v-17269" display="none"><g id="v-17254"><path d="M 26 0 L 0 13 L 26 26 z" end="source"/></g><g id="v-17255"><path d="M 26 0 L 0 13 L 26 26 z" end="target"/></g></g><g id="v-17268" display="none"><g id="v-17253"><g event="remove" transform="translate(866.6951948396832, 1070.5213671771264)"><circle r="11"/><path d="M24.778,21.419 19.276,15.917 24.777,10.415 21.949,7.585 16.447,13.087 10.945,7.585 8.117,10.415 13.618,15.917 8.116,21.419 10.946,24.248 16.447,18.746 21.948,24.248z" transform="scale(.8) translate(-16, -16)"/><title>Remove link.</title></g><g event="link:options" transform="translate(866.6951948396832, 1070.5213671771264)"><circle r="11" transform="translate(25)"/><path fill="#fff" d="M31.229,17.736c0.064-0.571,0.104-1.148,0.104-1.736s-0.04-1.166-0.104-1.737l-4.377-1.557c-0.218-0.716-0.504-1.401-0.851-2.05l1.993-4.192c-0.725-0.91-1.549-1.734-2.458-2.459l-4.193,1.994c-0.647-0.347-1.334-0.632-2.049-0.849l-1.558-4.378C17.165,0.708,16.588,0.667,16,0.667s-1.166,0.041-1.737,0.105L12.707,5.15c-0.716,0.217-1.401,0.502-2.05,0.849L6.464,4.005C5.554,4.73,4.73,5.554,4.005,6.464l1.994,4.192c-0.347,0.648-0.632,1.334-0.849,2.05l-4.378,1.557C0.708,14.834,0.667,15.412,0.667,16s0.041,1.165,0.105,1.736l4.378,1.558c0.217,0.715,0.502,1.401,0.849,2.049l-1.994,4.193c0.725,0.909,1.549,1.733,2.459,2.458l4.192-1.993c0.648,0.347,1.334,0.633,2.05,0.851l1.557,4.377c0.571,0.064,1.148,0.104,1.737,0.104c0.588,0,1.165-0.04,1.736-0.104l1.558-4.377c0.715-0.218,1.399-0.504,2.049-0.851l4.193,1.993c0.909-0.725,1.733-1.549,2.458-2.458l-1.993-4.193c0.347-0.647,0.633-1.334,0.851-2.049L31.229,17.736zM16,20.871c-2.69,0-4.872-2.182-4.872-4.871c0-2.69,2.182-4.872,4.872-4.872c2.689,0,4.871,2.182,4.871,4.872C20.871,18.689,18.689,20.871,16,20.871z" transform="scale(.55) translate(29, -16)"/><title>Link options.</title></g></g></g></g><g id="j_1138"><path id="v-17279" fill="none" stroke="#505050" stroke-width="2" d="M 1794 1155 L 1605 1490" style="opacity:1"/><path fill="#000" stroke="#000" d="M 0 0 0 0" transform="matrix(-0.49215999245643616,0.8705047369003296,-0.8705047369003296,-0.49215999245643616,1794.199951171875,1155)"/><path id="v-17281" fill="#505050" stroke="#505050" d="M 20 0 L 0 10 L 20 20 z" transform="matrix(0.49216023087501526,-0.87050461769104,0.87050461769104,0.49216023087501526,1596.0948486328125,1485.078369140625)" style="opacity:1"/><path id="v-17280" fill="none" d="M 1794 1155 L 1605 1490" style="cursor:default"/><g><g id="v-17273" cursor="move" label-idx="0" transform="matrix(1,0,0,1,1699.5,1322.5)" style="cursor:default;opacity:1"><rect id="v-17276" width="0" height="0" fill="#111" joint-selector="rect" pointer-events="none" rx="3" ry="3" transform="matrix(1,0,0,1,0,0)"/><text id="v-17275" y=".8em" fill="#505050" display="none" font-family="Open Sans" font-size="24" font-weight="normal" joint-selector="text" pointer-events="none" text-anchor="middle" xml:space="preserve"><tspan style="fill-opacity:0;stroke-opacity:0" dy="0">-</tspan></text></g><g id="v-17274" cursor="move" label-idx="1" transform="matrix(1,0,0,1,1689.5,1334.5)" style="cursor:default;opacity:1"><rect id="v-17278" width="0" height="0" fill="#fff" display="none" joint-selector="rect" rx="3" ry="3" transform="matrix(1,0,0,1,0,0)"/></g></g><g id="v-17283" display="none"><g id="v-17271"><path d="M 26 0 L 0 13 L 26 26 z" end="source"/></g><g id="v-17272"><path d="M 26 0 L 0 13 L 26 26 z" end="target"/></g></g><g id="v-17282" display="none"><g id="v-17270"><g event="remove" transform="translate(1774.3451297294757, 1189.8379975694481)"><circle r="11"/><path d="M24.778,21.419 19.276,15.917 24.777,10.415 21.949,7.585 16.447,13.087 10.945,7.585 8.117,10.415 13.618,15.917 8.116,21.419 10.946,24.248 16.447,18.746 21.948,24.248z" transform="scale(.8) translate(-16, -16)"/><title>Remove link.</title></g><g event="link:options" transform="translate(1774.3451297294757, 1189.8379975694481)"><circle r="11" transform="translate(25)"/><path fill="#fff" d="M31.229,17.736c0.064-0.571,0.104-1.148,0.104-1.736s-0.04-1.166-0.104-1.737l-4.377-1.557c-0.218-0.716-0.504-1.401-0.851-2.05l1.993-4.192c-0.725-0.91-1.549-1.734-2.458-2.459l-4.193,1.994c-0.647-0.347-1.334-0.632-2.049-0.849l-1.558-4.378C17.165,0.708,16.588,0.667,16,0.667s-1.166,0.041-1.737,0.105L12.707,5.15c-0.716,0.217-1.401,0.502-2.05,0.849L6.464,4.005C5.554,4.73,4.73,5.554,4.005,6.464l1.994,4.192c-0.347,0.648-0.632,1.334-0.849,2.05l-4.378,1.557C0.708,14.834,0.667,15.412,0.667,16s0.041,1.165,0.105,1.736l4.378,1.558c0.217,0.715,0.502,1.401,0.849,2.049l-1.994,4.193c0.725,0.909,1.549,1.733,2.459,2.458l4.192-1.993c0.648,0.347,1.334,0.633,2.05,0.851l1.557,4.377c0.571,0.064,1.148,0.104,1.737,0.104c0.588,0,1.165-0.04,1.736-0.104l1.558-4.377c0.715-0.218,1.399-0.504,2.049-0.851l4.193,1.993c0.909-0.725,1.733-1.549,2.458-2.458l-1.993-4.193c0.347-0.647,0.633-1.334,0.851-2.049L31.229,17.736zM16,20.871c-2.69,0-4.872-2.182-4.872-4.871c0-2.69,2.182-4.872,4.872-4.872c2.689,0,4.871,2.182,4.871,4.872C20.871,18.689,18.689,20.871,16,20.871z" transform="scale(.55) translate(29, -16)"/><title>Link options.</title></g></g></g></g><g id="j_1139"><path id="v-17299" fill="none" stroke="#505050" stroke-width="2" d="M 1654 1000 L 1355 995" style="opacity:1"/><path fill="#000" stroke="#000" d="M 0 0 0 0" transform="matrix(-0.9998000860214233,-0.019996076822280884,0.019996076822280884,-0.9998000860214233,1654,1000.489990234375)"/><path id="v-17301" fill="#505050" stroke="#505050" d="M 20 0 L 0 10 L 20 20 z" transform="matrix(0.9998000860214233,0.019996000453829765,-0.019996000453829765,0.9998000860214233,1355.199951171875,984.5120239257812)" style="opacity:1"/><path id="v-17300" fill="none" d="M 1654 1000 L 1355 995" style="cursor:default"/><g><g id="v-17290" cursor="move" label-idx="0" transform="matrix(1,0,0,1,1504.5,997.5)" style="cursor:default;opacity:1"><rect id="v-17294" width="199.435" height="62.801" fill="#111" joint-selector="rect" pointer-events="none" rx="3" ry="3" transform="matrix(1,0,0,1,-99.69999694824219,-31.399999618530273)"/><text id="v-17293" y=".8em" fill="#505050" font-family="Open Sans" font-size="24" font-weight="normal" joint-selector="text" pointer-events="none" text-anchor="middle" transform="matrix(1,0,0,1,0,-24.200000762939453)" xml:space="preserve"><tspan dy="0">Reads</tspan><tspan x="0" dy="1.2em">subscription data</tspan></text></g><g id="v-17291" cursor="move" label-idx="1" transform="matrix(1,0,0,1,1504.5,1038.300048828125)" style="cursor:default;opacity:1"><rect id="v-17296" width="144.146" height="24.862" fill="#111" joint-selector="rect" pointer-events="none" rx="3" ry="3" transform="matrix(1,0,0,1,-72.0999984741211,-12.399999618530273)"/><text id="v-17295" y=".8em" fill="#505050" font-family="Open Sans" font-size="17" font-weight="normal" joint-selector="text" pointer-events="none" text-anchor="middle" transform="matrix(1,0,0,1,0,-6.900000095367432)" xml:space="preserve"><tspan dy="0">[Subscription API]</tspan></text></g><g id="v-17292" cursor="move" label-idx="2" transform="matrix(1,0,0,1,1494.5,1046.699951171875)" style="cursor:default;opacity:1"><rect id="v-17298" width="0" height="0" fill="#fff" display="none" joint-selector="rect" rx="3" ry="3" transform="matrix(1,0,0,1,0,0)"/></g></g><g id="v-17303" display="none"><g id="v-17288"><path d="M 26 0 L 0 13 L 26 26 z" end="source"/></g><g id="v-17289"><path d="M 26 0 L 0 13 L 26 26 z" end="target"/></g></g><g id="v-17302" display="none"><g id="v-17287"><g event="remove" transform="translate(1614.0055916059086, 999.3311971840453)"><circle r="11"/><path d="M24.778,21.419 19.276,15.917 24.777,10.415 21.949,7.585 16.447,13.087 10.945,7.585 8.117,10.415 13.618,15.917 8.116,21.419 10.946,24.248 16.447,18.746 21.948,24.248z" transform="scale(.8) translate(-16, -16)"/><title>Remove link.</title></g><g event="link:options" transform="translate(1614.0055916059086, 999.3311971840453)"><circle r="11" transform="translate(25)"/><path fill="#fff" d="M31.229,17.736c0.064-0.571,0.104-1.148,0.104-1.736s-0.04-1.166-0.104-1.737l-4.377-1.557c-0.218-0.716-0.504-1.401-0.851-2.05l1.993-4.192c-0.725-0.91-1.549-1.734-2.458-2.459l-4.193,1.994c-0.647-0.347-1.334-0.632-2.049-0.849l-1.558-4.378C17.165,0.708,16.588,0.667,16,0.667s-1.166,0.041-1.737,0.105L12.707,5.15c-0.716,0.217-1.401,0.502-2.05,0.849L6.464,4.005C5.554,4.73,4.73,5.554,4.005,6.464l1.994,4.192c-0.347,0.648-0.632,1.334-0.849,2.05l-4.378,1.557C0.708,14.834,0.667,15.412,0.667,16s0.041,1.165,0.105,1.736l4.378,1.558c0.217,0.715,0.502,1.401,0.849,2.049l-1.994,4.193c0.725,0.909,1.549,1.733,2.459,2.458l4.192-1.993c0.648,0.347,1.334,0.633,2.05,0.851l1.557,4.377c0.571,0.064,1.148,0.104,1.737,0.104c0.588,0,1.165-0.04,1.736-0.104l1.558-4.377c0.715-0.218,1.399-0.504,2.049-0.851l4.193,1.993c0.909-0.725,1.733-1.549,2.458-2.458l-1.993-4.193c0.347-0.647,0.633-1.334,0.851-2.049L31.229,17.736zM16,20.871c-2.69,0-4.872-2.182-4.872-4.871c0-2.69,2.182-4.872,4.872-4.872c2.689,0,4.871,2.182,4.871,4.872C20.871,18.689,18.689,20.871,16,20.871z" transform="scale(.55) translate(29, -16)"/><title>Link options.</title></g></g></g></g><g id="j_1140"><path id="v-17319" fill="none" stroke="#505050" stroke-width="2" d="M 1654 1092 L 649 1482" style="opacity:1"/><path fill="#000" stroke="#000" d="M 0 0 0 0" transform="matrix(-0.9324031472206116,0.3614199161529541,-0.3614199161529541,-0.9324031472206116,1654,1092.219970703125)"/><path id="v-17321" fill="#505050" stroke="#505050" d="M 20 0 L 0 10 L 20 20 z" transform="matrix(0.9324032664299011,-0.361419677734375,0.361419677734375,0.9324032664299011,645.3858032226562,1472.4559326171875)" style="opacity:1"/><path id="v-17320" fill="none" d="M 1654 1092 L 649 1482" style="cursor:default"/><g><g id="v-17310" cursor="move" label-idx="0" transform="matrix(1,0,0,1,1151.5,1287)" style="cursor:default;opacity:1"><rect id="v-17314" width="161.749" height="91.601" fill="#111" joint-selector="rect" pointer-events="none" rx="3" ry="3" transform="matrix(1,0,0,1,-80.9000015258789,-45.79999923706055)"/><text id="v-17313" y=".8em" fill="#505050" font-family="Open Sans" font-size="24" font-weight="normal" joint-selector="text" pointer-events="none" text-anchor="middle" transform="matrix(1,0,0,1,0,-38.599998474121094)" xml:space="preserve"><tspan dy="0">Forwards</tspan><tspan x="0" dy="1.2em">extension&apos;s UI</tspan><tspan x="0" dy="1.2em">events</tspan></text></g><g id="v-17311" cursor="move" label-idx="1" transform="matrix(1,0,0,1,1151.5,1342.199951171875)" style="cursor:default;opacity:1"><rect id="v-17316" width="196.846" height="24.862" fill="#111" joint-selector="rect" pointer-events="none" rx="3" ry="3" transform="matrix(1,0,0,1,-98.4000015258789,-12.399999618530273)"/><text id="v-17315" y=".8em" fill="#505050" font-family="Open Sans" font-size="17" font-weight="normal" joint-selector="text" pointer-events="none" text-anchor="middle" transform="matrix(1,0,0,1,0,-6.900000095367432)" xml:space="preserve"><tspan dy="0">[Measurement Protocol]</tspan></text></g><g id="v-17312" cursor="move" label-idx="2" transform="matrix(1,0,0,1,1141.5,1350.5999755859375)" style="cursor:default;opacity:1"><rect id="v-17318" width="0" height="0" fill="#fff" display="none" joint-selector="rect" rx="3" ry="3" transform="matrix(1,0,0,1,0,0)"/></g></g><g id="v-17323" display="none"><g id="v-17308"><path d="M 26 0 L 0 13 L 26 26 z" end="source"/></g><g id="v-17309"><path d="M 26 0 L 0 13 L 26 26 z" end="target"/></g></g><g id="v-17322" display="none"><g id="v-17307"><g event="remove" transform="translate(1616.7093776792512, 1106.4709877662608)"><circle r="11"/><path d="M24.778,21.419 19.276,15.917 24.777,10.415 21.949,7.585 16.447,13.087 10.945,7.585 8.117,10.415 13.618,15.917 8.116,21.419 10.946,24.248 16.447,18.746 21.948,24.248z" transform="scale(.8) translate(-16, -16)"/><title>Remove link.</title></g><g event="link:options" transform="translate(1616.7093776792512, 1106.4709877662608)"><circle r="11" transform="translate(25)"/><path fill="#fff" d="M31.229,17.736c0.064-0.571,0.104-1.148,0.104-1.736s-0.04-1.166-0.104-1.737l-4.377-1.557c-0.218-0.716-0.504-1.401-0.851-2.05l1.993-4.192c-0.725-0.91-1.549-1.734-2.458-2.459l-4.193,1.994c-0.647-0.347-1.334-0.632-2.049-0.849l-1.558-4.378C17.165,0.708,16.588,0.667,16,0.667s-1.166,0.041-1.737,0.105L12.707,5.15c-0.716,0.217-1.401,0.502-2.05,0.849L6.464,4.005C5.554,4.73,4.73,5.554,4.005,6.464l1.994,4.192c-0.347,0.648-0.632,1.334-0.849,2.05l-4.378,1.557C0.708,14.834,0.667,15.412,0.667,16s0.041,1.165,0.105,1.736l4.378,1.558c0.217,0.715,0.502,1.401,0.849,2.049l-1.994,4.193c0.725,0.909,1.549,1.733,2.459,2.458l4.192-1.993c0.648,0.347,1.334,0.633,2.05,0.851l1.557,4.377c0.571,0.064,1.148,0.104,1.737,0.104c0.588,0,1.165-0.04,1.736-0.104l1.558-4.377c0.715-0.218,1.399-0.504,2.049-0.851l4.193,1.993c0.909-0.725,1.733-1.549,2.458-2.458l-1.993-4.193c0.347-0.647,0.633-1.334,0.851-2.049L31.229,17.736zM16,20.871c-2.69,0-4.872-2.182-4.872-4.871c0-2.69,2.182-4.872,4.872-4.872c2.689,0,4.871,2.182,4.871,4.872C20.871,18.689,18.689,20.871,16,20.871z" transform="scale(.55) translate(29, -16)"/><title>Link options.</title></g></g></g></g></g></g></svg>