<svg xmlns="http://www.w3.org/2000/svg" xmlns:xlink="http://www.w3.org/1999/xlink" version="1.1" viewBox="0 0 3600 2862" style="background:#111"><defs><style>@import url(https://fonts.googleapis.com/css?family=Open+Sans:400,700);</style></defs><g joint-selector="layers"><g transform="matrix(1,0,0,1,0,0)"><g id="j_1495" transform="translate(20,2825.6)"><g id="v-23010"><text id="v-23011" y=".8em" fill="#777" display="block" font-family="Open Sans" font-size="22" font-weight="normal" pointer-events="none" text-anchor="start" xml:space="preserve"><tspan dy="0">Monday, September 15, 2025 at 10:27 AM Central Daylight Time</tspan></text></g></g><g id="j_1494" transform="translate(20,2799.2)"><g id="v-23008"><text id="v-23009" y=".8em" fill="#bbb" display="block" font-family="Open Sans" font-size="22" font-weight="normal" pointer-events="none" text-anchor="start" xml:space="preserve"><tspan dy="0">ForwardEmailProcess</tspan></text></g></g><g id="j_1493" transform="translate(20,2756)"><g id="v-23006"><text id="v-23007" y=".8em" fill="#bbb" display="block" font-family="Open Sans" font-size="36" font-weight="normal" pointer-events="none" text-anchor="start" xml:space="preserve"><tspan dy="0">[Dynamic] Forwarding an Email to a Relay User</tspan></text></g></g><g id="j_1497" transform="translate(200,681)"><g id="v-23023"><rect id="v-23024" width="2755" height="1981" fill="#111" stroke="#005526" stroke-dasharray="20 20" stroke-width="1" pointer-events="none" rx="0" ry="0"/><text id="v-23025" y="1942" fill="#005526" font-family="Open Sans" font-size="24" font-weight="normal" pointer-events="visible" text-anchor="start" transform="matrix(1,0,0,1,15,0)" xml:space="preserve"><tspan dy="0">Firefox Relay</tspan></text><text id="v-23026" y="1966" fill="#005526" font-family="Open Sans" font-size="17" font-weight="normal" pointer-events="visible" text-anchor="start" transform="matrix(1,0,0,1,15,0)" xml:space="preserve"><tspan dy="0">[Software System]</tspan></text><image id="v-23027" pointer-events="visible"/></g></g><g id="j_1496" transform="translate(220,720)"><g id="v-23015" style="opacity:1"><path id="v-23016" fill="#00d230" stroke="#00bd2b" stroke-width="2" d="M 0,30 a 225,30 0,0,0 450 0 a 225,30 0,0,0 -450 0 l 0,240 a 225,30 0,0,0 450 0 l 0,-240" pointer-events="visiblePainted" style="fill:#00d230;stroke:#00bd2b"/><rect id="v-23017" width="450" height="270" x="0" y="30" fill="none" stroke="none" stroke-width="0" pointer-events="visiblePainted"/><text id="v-23018" y=".8em" fill="#000" font-family="Open Sans" font-size="34" font-weight="bold" pointer-events="visible" text-anchor="middle" transform="matrix(1,0,0,1,225,110.5999984741211)" xml:space="preserve" style="fill:#000"><tspan dy="0">Database</tspan></text><text id="v-23019" y=".8em" fill="#000" font-family="Open Sans" font-size="17" text-anchor="middle" transform="matrix(1,0,0,1,225,151.39999389648438)" xml:space="preserve" style="fill:#000"><tspan dy="0">[Container: PostgreSQL]</tspan></text><text id="v-23020" y=".8em" fill="#000" font-family="Open Sans" font-size="24" text-anchor="middle" transform="matrix(1,0,0,1,225,181.8000030517578)" xml:space="preserve" style="fill:#000"><tspan dy="0">Stores Relay User profiles, masks,</tspan><tspan x="0" dy="1.2em">abuse metrics, etc.</tspan></text><image id="v-23022"/></g></g><g id="j_1498" transform="translate(220,1825)"><g id="v-23031" style="opacity:1"><ellipse id="v-23032" cx="225" cy="150" fill="#00d230" stroke="#00bd2b" stroke-width="2" pointer-events="visiblePainted" rx="225" ry="150" style="fill:#00d230;stroke:#00bd2b"/><text id="v-23033" y=".8em" fill="#000" font-family="Open Sans" font-size="34" font-weight="bold" pointer-events="visible" text-anchor="middle" transform="matrix(1,0,0,1,225,102.5)" xml:space="preserve" style="fill:#000"><tspan dy="0">Log Aggregator</tspan></text><text id="v-23034" y=".8em" fill="#000" font-family="Open Sans" font-size="17" text-anchor="middle" transform="matrix(1,0,0,1,225,143.3000030517578)" xml:space="preserve" style="fill:#000"><tspan dy="0">[Container]</tspan></text><text id="v-23035" y=".8em" fill="#000" font-family="Open Sans" font-size="24" text-anchor="middle" transform="matrix(1,0,0,1,225,173.6999969482422)" xml:space="preserve" style="fill:#000"><tspan dy="0">Collects logs from other containers</tspan></text><image id="v-23037"/></g></g><g id="j_1499" transform="translate(220,1272)"><g id="v-23044" style="opacity:1"><rect id="v-23045" width="450" height="300" fill="#fff" stroke="#00d230" stroke-width="10" pointer-events="visiblePainted" rx="20" ry="20" style="fill:#fff;stroke:#00d230"/><text id="v-23046" y=".8em" fill="#000" font-family="Open Sans" font-size="34" font-weight="bold" pointer-events="visible" text-anchor="middle" transform="matrix(1,0,0,1,225,88.0999984741211)" xml:space="preserve" style="fill:#000"><tspan dy="0">Metrics Aggregator</tspan></text><text id="v-23047" y=".8em" fill="#000" font-family="Open Sans" font-size="17" text-anchor="middle" transform="matrix(1,0,0,1,225,128.89999389648438)" xml:space="preserve" style="fill:#000"><tspan dy="0">[Container: telegraf]</tspan></text><text id="v-23048" y=".8em" fill="#000" font-family="Open Sans" font-size="24" text-anchor="middle" transform="matrix(1,0,0,1,225,159.3000030517578)" xml:space="preserve" style="fill:#000"><tspan dy="0">Collects metrics from other</tspan><tspan x="0" dy="1.2em">containers</tspan></text><image id="v-23050"/></g></g><g id="j_1500" transform="translate(1550,1790)"><g id="v-23057" style="opacity:1"><ellipse id="v-23058" cx="225" cy="150" fill="#00d230" stroke="#00bd2b" stroke-width="2" pointer-events="visiblePainted" rx="225" ry="150" style="fill:#00d230;stroke:#00bd2b"/><text id="v-23059" y=".8em" fill="#000" font-family="Open Sans" font-size="34" font-weight="bold" pointer-events="visible" text-anchor="middle" transform="matrix(1,0,0,1,225,102.5)" xml:space="preserve" style="fill:#000"><tspan dy="0">Email Encryption</tspan></text><text id="v-23060" y=".8em" fill="#000" font-family="Open Sans" font-size="17" text-anchor="middle" transform="matrix(1,0,0,1,225,143.3000030517578)" xml:space="preserve" style="fill:#000"><tspan dy="0">[Container: AWS KMS]</tspan></text><text id="v-23061" y=".8em" fill="#000" font-family="Open Sans" font-size="24" text-anchor="middle" transform="matrix(1,0,0,1,225,173.6999969482422)" xml:space="preserve" style="fill:#000"><tspan dy="0">Encrypts emails, notifications at rest</tspan></text><image id="v-23063"/></g></g><g id="j_1501" transform="translate(1545,1045)"><g id="v-23067" style="opacity:1"><path id="v-23068" fill="#00d230" stroke="#00bd2b" stroke-width="2" d="M 0,30 a 225,30 0,0,0 450 0 a 225,30 0,0,0 -450 0 l 0,240 a 225,30 0,0,0 450 0 l 0,-240" pointer-events="visiblePainted" style="fill:#00d230;stroke:#00bd2b"/><rect id="v-23069" width="450" height="270" x="0" y="30" fill="none" stroke="none" stroke-width="0" pointer-events="visiblePainted"/><text id="v-23070" y=".8em" fill="#000" font-family="Open Sans" font-size="34" font-weight="bold" pointer-events="visible" text-anchor="middle" transform="matrix(1,0,0,1,225,125)" xml:space="preserve" style="fill:#000"><tspan dy="0">Incoming Email Storage</tspan></text><text id="v-23071" y=".8em" fill="#000" font-family="Open Sans" font-size="17" text-anchor="middle" transform="matrix(1,0,0,1,225,165.8000030517578)" xml:space="preserve" style="fill:#000"><tspan dy="0">[Container: AWS S3]</tspan></text><text id="v-23072" y=".8em" fill="#000" font-family="Open Sans" font-size="24" text-anchor="middle" transform="matrix(1,0,0,1,225,196.1999969482422)" xml:space="preserve" style="fill:#000"><tspan dy="0">Stores incoming mail</tspan></text><image id="v-23074"/></g></g><g id="j_1502" transform="translate(1546,2271)"><g id="v-23081" style="opacity:1"><path id="v-23082" fill="#00d230" stroke="#00bd2b" stroke-width="2" d="M 0,30 a 225,30 0,0,0 450 0 a 225,30 0,0,0 -450 0 l 0,240 a 225,30 0,0,0 450 0 l 0,-240" pointer-events="visiblePainted" style="fill:#00d230;stroke:#00bd2b"/><rect id="v-23083" width="450" height="270" x="0" y="30" fill="none" stroke="none" stroke-width="0" pointer-events="visiblePainted"/><text id="v-23084" y=".8em" fill="#000" font-family="Open Sans" font-size="34" font-weight="bold" pointer-events="visible" text-anchor="middle" transform="matrix(1,0,0,1,225,110.5999984741211)" xml:space="preserve" style="fill:#000"><tspan dy="0">Email Notification Queue</tspan></text><text id="v-23085" y=".8em" fill="#000" font-family="Open Sans" font-size="17" text-anchor="middle" transform="matrix(1,0,0,1,225,151.39999389648438)" xml:space="preserve" style="fill:#000"><tspan dy="0">[Container: AWS SQS]</tspan></text><text id="v-23086" y=".8em" fill="#000" font-family="Open Sans" font-size="24" text-anchor="middle" transform="matrix(1,0,0,1,225,181.8000030517578)" xml:space="preserve" style="fill:#000"><tspan dy="0">Holds notifications for emails,</tspan><tspan x="0" dy="1.2em">complaints, and bounces</tspan></text><image id="v-23088"/></g></g><g id="j_1503" transform="translate(1970,1360)"><g id="v-23092" style="opacity:1"><ellipse id="v-23093" cx="225" cy="150" fill="#00d230" stroke="#00bd2b" stroke-width="2" pointer-events="visiblePainted" rx="225" ry="150" style="fill:#00d230;stroke:#00bd2b"/><text id="v-23094" y=".8em" fill="#000" font-family="Open Sans" font-size="34" font-weight="bold" pointer-events="visible" text-anchor="middle" transform="matrix(1,0,0,1,225,88.0999984741211)" xml:space="preserve" style="fill:#000"><tspan dy="0">Email Pub/Sub</tspan></text><text id="v-23095" y=".8em" fill="#000" font-family="Open Sans" font-size="17" text-anchor="middle" transform="matrix(1,0,0,1,225,128.89999389648438)" xml:space="preserve" style="fill:#000"><tspan dy="0">[Container: AWS SNS]</tspan></text><text id="v-23096" y=".8em" fill="#000" font-family="Open Sans" font-size="24" text-anchor="middle" transform="matrix(1,0,0,1,225,159.3000030517578)" xml:space="preserve" style="fill:#000"><tspan dy="0">Published notifications to</tspan><tspan x="0" dy="1.2em">subscribers</tspan></text><image id="v-23098"/></g></g><g id="j_1504" transform="translate(2485,701)"><g id="v-23102" style="opacity:1"><ellipse id="v-23103" cx="225" cy="150" fill="#00d230" stroke="#00bd2b" stroke-width="2" pointer-events="visiblePainted" rx="225" ry="150" style="fill:#00d230;stroke:#00bd2b"/><text id="v-23104" y=".8em" fill="#000" font-family="Open Sans" font-size="34" font-weight="bold" pointer-events="visible" text-anchor="middle" transform="matrix(1,0,0,1,225,88.0999984741211)" xml:space="preserve" style="fill:#000"><tspan dy="0">Email Sender</tspan></text><text id="v-23105" y=".8em" fill="#000" font-family="Open Sans" font-size="17" text-anchor="middle" transform="matrix(1,0,0,1,225,128.89999389648438)" xml:space="preserve" style="fill:#000"><tspan dy="0">[Container: Amazon SES]</tspan></text><text id="v-23106" y=".8em" fill="#000" font-family="Open Sans" font-size="24" text-anchor="middle" transform="matrix(1,0,0,1,225,159.3000030517578)" xml:space="preserve" style="fill:#000"><tspan dy="0">Sends emails from the Relay</tspan><tspan x="0" dy="1.2em">domain</tspan></text><image id="v-23108"/></g></g><g id="j_1505" transform="translate(2485,1790)"><g id="v-23112" style="opacity:1"><ellipse id="v-23113" cx="225" cy="150" fill="#00d230" stroke="#00bd2b" stroke-width="2" pointer-events="visiblePainted" rx="225" ry="150" style="fill:#00d230;stroke:#00bd2b"/><text id="v-23114" y=".8em" fill="#000" font-family="Open Sans" font-size="34" font-weight="bold" pointer-events="visible" text-anchor="middle" transform="matrix(1,0,0,1,225,88.0999984741211)" xml:space="preserve" style="fill:#000"><tspan dy="0">Email Receiver</tspan></text><text id="v-23115" y=".8em" fill="#000" font-family="Open Sans" font-size="17" text-anchor="middle" transform="matrix(1,0,0,1,225,128.89999389648438)" xml:space="preserve" style="fill:#000"><tspan dy="0">[Container: Amazon SES]</tspan></text><text id="v-23116" y=".8em" fill="#000" font-family="Open Sans" font-size="24" text-anchor="middle" transform="matrix(1,0,0,1,225,159.3000030517578)" xml:space="preserve" style="fill:#000"><tspan dy="0">Routes incoming emails,</tspan><tspan x="0" dy="1.2em">complaints, and bounces</tspan></text><image id="v-23118"/></g></g><g id="j_1506" transform="translate(950,701)"><g id="v-23125" style="opacity:1"><rect id="v-23126" width="450" height="300" fill="#00d230" stroke="#005e2a" stroke-width="10" pointer-events="visiblePainted" rx="20" ry="20" style="fill:#00d230;stroke:#005e2a"/><text id="v-23127" y=".8em" fill="#000" font-family="Open Sans" font-size="34" font-weight="bold" pointer-events="visible" text-anchor="middle" transform="matrix(1,0,0,1,225,73.69999694824219)" xml:space="preserve" style="fill:#000"><tspan dy="0">Email Processor</tspan></text><text id="v-23128" y=".8em" fill="#000" font-family="Open Sans" font-size="17" text-anchor="middle" transform="matrix(1,0,0,1,225,114.5)" xml:space="preserve" style="fill:#000"><tspan dy="0">[Container: Python - Django Command]</tspan></text><text id="v-23129" y=".8em" fill="#000" font-family="Open Sans" font-size="24" text-anchor="middle" transform="matrix(1,0,0,1,225,144.89999389648438)" xml:space="preserve" style="fill:#000"><tspan dy="0">Processes and forwards incoming</tspan><tspan x="0" dy="1.2em">emails; Processes complaint and</tspan><tspan x="0" dy="1.2em">bounce reports</tspan></text><image id="v-23131"/></g></g><g id="j_1507" transform="translate(1700,200)"><g id="v-23135" style="opacity:1"><rect id="v-23137" width="400" height="240" x="0" y="160" fill="#f90" stroke="#e68a00" stroke-width="2" pointer-events="visiblePainted" rx="70" style="fill:#f90;stroke:#e68a00"/><circle id="v-23136" cx="200" cy="88.889" r="88.889" fill="#f90" stroke="#e68a00" stroke-width="2" pointer-events="visiblePainted" style="fill:#f90;stroke:#e68a00"/><line id="v-23143" x1="80" x2="80" y1="266.667" y2="400" stroke="#e68a00" stroke-width="2" style="stroke:#e68a00"/><line id="v-23144" x1="320" x2="320" y1="266.667" y2="400" stroke="#e68a00" stroke-width="2" style="stroke:#e68a00"/><text id="v-23138" y=".8em" fill="#000" font-family="Open Sans" font-size="34" font-weight="bold" pointer-events="visible" text-anchor="middle" transform="matrix(1,0,0,1,200,232.5)" xml:space="preserve" style="fill:#000"><tspan dy="0">Relay User</tspan></text><text id="v-23139" y=".8em" fill="#000" font-family="Open Sans" font-size="17" text-anchor="middle" transform="matrix(1,0,0,1,200,273.29998779296875)" xml:space="preserve" style="fill:#000"><tspan dy="0">[Person]</tspan></text><text id="v-23140" y=".8em" fill="#000" font-family="Open Sans" font-size="24" text-anchor="middle" transform="matrix(1,0,0,1,200,303.70001220703125)" xml:space="preserve" style="fill:#000"><tspan dy="0">A user of Firefox Relay.</tspan></text><image id="v-23142"/></g></g><g id="j_1508" transform="translate(3000,1015)"><g id="v-23148" style="opacity:1"><rect id="v-23150" width="400" height="240" x="0" y="160" fill="#ddd" stroke="#c7c7c7" stroke-width="2" pointer-events="visiblePainted" rx="70" style="fill:#ddd;stroke:#c7c7c7"/><circle id="v-23149" cx="200" cy="88.889" r="88.889" fill="#ddd" stroke="#c7c7c7" stroke-width="2" pointer-events="visiblePainted" style="fill:#ddd;stroke:#c7c7c7"/><line id="v-23156" x1="80" x2="80" y1="266.667" y2="400" stroke="#c7c7c7" stroke-width="2" style="stroke:#c7c7c7"/><line id="v-23157" x1="320" x2="320" y1="266.667" y2="400" stroke="#c7c7c7" stroke-width="2" style="stroke:#c7c7c7"/><text id="v-23151" y=".8em" fill="#000" font-family="Open Sans" font-size="34" font-weight="bold" pointer-events="visible" text-anchor="middle" transform="matrix(1,0,0,1,200,218.10000610351562)" xml:space="preserve" style="fill:#000"><tspan dy="0">Email Contact</tspan></text><text id="v-23152" y=".8em" fill="#000" font-family="Open Sans" font-size="17" text-anchor="middle" transform="matrix(1,0,0,1,200,258.8999938964844)" xml:space="preserve" style="fill:#000"><tspan dy="0">[Person]</tspan></text><text id="v-23153" y=".8em" fill="#000" font-family="Open Sans" font-size="24" text-anchor="middle" transform="matrix(1,0,0,1,200,289.29998779296875)" xml:space="preserve" style="fill:#000"><tspan dy="0">A person or business emailing</tspan><tspan x="0" dy="1.2em">with a Relay User.</tspan></text><image id="v-23155"/></g></g><g id="j_1509"><path id="v-23173" fill="none" stroke="#505050" stroke-width="2" d="M 3065 1415 L 2811 1790"/><path fill="#000" stroke="#000" d="M 0 0 0 0" transform="matrix(-0.5599660873413086,0.8285155296325684,-0.8285155296325684,-0.5599660873413086,3064.830078125,1415)"/><path id="v-23175" fill="#505050" stroke="#505050" d="M 20 0 L 0 10 L 20 20 z" transform="matrix(0.5599658489227295,-0.8285157084465027,0.8285157084465027,0.5599658489227295,2803.094970703125,1784.400390625)"/><path id="v-23174" fill="none" d="M 3065 1415 L 2811 1790" style="cursor:default"/><g><g id="v-23164" cursor="move" label-idx="0" transform="matrix(1,0,0,1,2938,1602.5)" style="cursor:default"><rect id="v-23168" width="197.6" height="121.5" fill="#111" joint-selector="rect" pointer-events="none" rx="3" ry="3" transform="matrix(1,0,0,1,-98.80000305175781,-60.79999923706055)"/><text id="v-23167" y=".8em" fill="#505050" font-family="Open Sans" font-size="24" font-weight="normal" joint-selector="text" pointer-events="none" text-anchor="middle" transform="matrix(1,0,0,1,0,-53)" xml:space="preserve"><tspan dy="0">1: Sends email.</tspan><tspan x="0" dy="1.2em">Email passes</tspan><tspan x="0" dy="1.2em">DMARC, virus,</tspan><tspan x="0" dy="1.2em">and spam checks</tspan></text></g><g id="v-23165" cursor="move" label-idx="1" transform="matrix(1,0,0,1,2938,1672.0999755859375)" style="cursor:default"><rect id="v-23170" width="231.483" height="24.862" fill="#111" joint-selector="rect" pointer-events="none" rx="3" ry="3" transform="matrix(1,0,0,1,-115.69999694824219,-12.399999618530273)"/><text id="v-23169" y=".8em" fill="#505050" font-family="Open Sans" font-size="17" font-weight="normal" joint-selector="text" pointer-events="none" text-anchor="middle" transform="matrix(1,0,0,1,0,-6.900000095367432)" xml:space="preserve"><tspan dy="0">[SMTP via user&apos;s email mask]</tspan></text></g><g id="v-23166" cursor="move" label-idx="2" transform="matrix(1,0,0,1,2928,1680.5)" style="cursor:default"><rect id="v-23172" width="0" height="0" fill="#fff" display="none" joint-selector="rect" rx="3" ry="3" transform="matrix(1,0,0,1,0,0)"/></g></g><g id="v-23177" display="none"><g id="v-23162"><path d="M 26 0 L 0 13 L 26 26 z" end="source"/></g><g id="v-23163"><path d="M 26 0 L 0 13 L 26 26 z" end="target"/></g></g><g id="v-23176" display="none"><g id="v-23161"><g event="remove" transform="translate(3042.5680269857767, 1448.118070395015)"><circle r="11"/><path d="M24.778,21.419 19.276,15.917 24.777,10.415 21.949,7.585 16.447,13.087 10.945,7.585 8.117,10.415 13.618,15.917 8.116,21.419 10.946,24.248 16.447,18.746 21.948,24.248z" transform="scale(.8) translate(-16, -16)"/><title>Remove link.</title></g><g event="link:options" transform="translate(3042.5680269857767, 1448.118070395015)"><circle r="11" transform="translate(25)"/><path fill="#fff" d="M31.229,17.736c0.064-0.571,0.104-1.148,0.104-1.736s-0.04-1.166-0.104-1.737l-4.377-1.557c-0.218-0.716-0.504-1.401-0.851-2.05l1.993-4.192c-0.725-0.91-1.549-1.734-2.458-2.459l-4.193,1.994c-0.647-0.347-1.334-0.632-2.049-0.849l-1.558-4.378C17.165,0.708,16.588,0.667,16,0.667s-1.166,0.041-1.737,0.105L12.707,5.15c-0.716,0.217-1.401,0.502-2.05,0.849L6.464,4.005C5.554,4.73,4.73,5.554,4.005,6.464l1.994,4.192c-0.347,0.648-0.632,1.334-0.849,2.05l-4.378,1.557C0.708,14.834,0.667,15.412,0.667,16s0.041,1.165,0.105,1.736l4.378,1.558c0.217,0.715,0.502,1.401,0.849,2.049l-1.994,4.193c0.725,0.909,1.549,1.733,2.459,2.458l4.192-1.993c0.648,0.347,1.334,0.633,2.05,0.851l1.557,4.377c0.571,0.064,1.148,0.104,1.737,0.104c0.588,0,1.165-0.04,1.736-0.104l1.558-4.377c0.715-0.218,1.399-0.504,2.049-0.851l4.193,1.993c0.909-0.725,1.733-1.549,2.458-2.458l-1.993-4.193c0.347-0.647,0.633-1.334,0.851-2.049L31.229,17.736zM16,20.871c-2.69,0-4.872-2.182-4.872-4.871c0-2.69,2.182-4.872,4.872-4.872c2.689,0,4.871,2.182,4.871,4.872C20.871,18.689,18.689,20.871,16,20.871z" transform="scale(.55) translate(29, -16)"/><title>Link options.</title></g></g></g></g><g id="j_1510"><path id="v-23195" fill="none" stroke="#505050" stroke-width="2" d="M 2708 1790 L 2701 1371 C 2701 1364.3333333333333 2698.333333333333 1359.3333333333333 2693 1356 L 2449 1196 C 2443.6666666666665 1192.6666666666665 2437.6666666666665 1191 2431 1191 L 1995 1194"/><path fill="#000" stroke="#000" d="M 0 0 0 0" transform="matrix(-0.015545843169093132,-0.9998791813850403,0.9998791813850403,-0.015545843169093132,2707.669921875,1790)"/><path id="v-23197" fill="#505050" stroke="#505050" d="M 20 0 L 0 10 L 20 20 z" transform="matrix(0.9999822378158569,-0.005963847506791353,0.005963847506791353,0.9999822378158569,1994.9404296875,1183.66015625)"/><path id="v-23196" fill="none" d="M 2708 1790 L 2701 1371 C 2701 1364.3333333333333 2698.333333333333 1359.3333333333333 2693 1356 L 2449 1196 C 2443.6666666666665 1192.6666666666665 2437.6666666666665 1191 2431 1191 L 1995 1194" style="cursor:default"/><g><g id="v-23186" cursor="move" label-idx="0" transform="matrix(1,0,0,1,2563.451904296875,1271.0504150390625)" style="cursor:default"><rect id="v-23190" width="185.75" height="63.9" fill="#111" joint-selector="rect" pointer-events="none" rx="3" ry="3" transform="matrix(1,0,0,1,-92.9000015258789,-32)"/><text id="v-23189" y=".8em" fill="#505050" font-family="Open Sans" font-size="24" font-weight="normal" joint-selector="text" pointer-events="none" text-anchor="middle" transform="matrix(1,0,0,1,0,-24.200000762939453)" xml:space="preserve"><tspan dy="0">2: Stores</tspan><tspan x="0" dy="1.2em">encrypted email</tspan></text></g><g id="v-23187" cursor="move" label-idx="1" transform="matrix(1,0,0,1,2563.451904296875,1311.8504638671875)" style="cursor:default"><rect id="v-23192" width="33.965" height="24.862" fill="#111" joint-selector="rect" pointer-events="none" rx="3" ry="3" transform="matrix(1,0,0,1,-17,-12.399999618530273)"/><text id="v-23191" y=".8em" fill="#505050" font-family="Open Sans" font-size="17" font-weight="normal" joint-selector="text" pointer-events="none" text-anchor="middle" transform="matrix(1,0,0,1,0,-6.900000095367432)" xml:space="preserve"><tspan dy="0">[S3]</tspan></text></g><g id="v-23188" cursor="move" label-idx="2" transform="matrix(1,0,0,1,2553.451904296875,1320.25048828125)" style="cursor:default"><rect id="v-23194" width="0" height="0" fill="#fff" display="none" joint-selector="rect" rx="3" ry="3" transform="matrix(1,0,0,1,0,0)"/></g></g><g display="none"><g id="v-23182" transform="translate(2701, 1361)"><circle r="10" idx="0"/><path d="M16,5.333c-7.732,0-14,4.701-14,10.5c0,1.982,0.741,3.833,2.016,5.414L2,25.667l5.613-1.441c2.339,1.317,5.237,2.107,8.387,2.107c7.732,0,14-4.701,14-10.5C30,10.034,23.732,5.333,16,5.333z" idx="0" transform="translate(5, -33)"/><path d="M24.778,21.419 19.276,15.917 24.777,10.415 21.949,7.585 16.447,13.087 10.945,7.585 8.117,10.415 13.618,15.917 8.116,21.419 10.946,24.248 16.447,18.746 21.948,24.248z" idx="0" transform="scale(.8) translate(9.5, -37)"><title>Remove vertex.</title></path></g><g id="v-23183" transform="translate(2441, 1191)"><circle r="10" idx="1"/><path d="M16,5.333c-7.732,0-14,4.701-14,10.5c0,1.982,0.741,3.833,2.016,5.414L2,25.667l5.613-1.441c2.339,1.317,5.237,2.107,8.387,2.107c7.732,0,14-4.701,14-10.5C30,10.034,23.732,5.333,16,5.333z" idx="1" transform="translate(5, -33)"/><path d="M24.778,21.419 19.276,15.917 24.777,10.415 21.949,7.585 16.447,13.087 10.945,7.585 8.117,10.415 13.618,15.917 8.116,21.419 10.946,24.248 16.447,18.746 21.948,24.248z" idx="1" transform="scale(.8) translate(9.5, -37)"><title>Remove vertex.</title></path></g></g><g id="v-23199" display="none"><g id="v-23184"><path d="M 26 0 L 0 13 L 26 26 z" end="source"/></g><g id="v-23185"><path d="M 26 0 L 0 13 L 26 26 z" end="target"/></g></g><g id="v-23198" display="none"><g id="v-23181"><g event="remove" transform="translate(2707.3318354810503, 1750.0055809371404)"><circle r="11"/><path d="M24.778,21.419 19.276,15.917 24.777,10.415 21.949,7.585 16.447,13.087 10.945,7.585 8.117,10.415 13.618,15.917 8.116,21.419 10.946,24.248 16.447,18.746 21.948,24.248z" transform="scale(.8) translate(-16, -16)"/><title>Remove link.</title></g><g event="link:options" transform="translate(2707.3318354810503, 1750.0055809371404)"><circle r="11" transform="translate(25)"/><path fill="#fff" d="M31.229,17.736c0.064-0.571,0.104-1.148,0.104-1.736s-0.04-1.166-0.104-1.737l-4.377-1.557c-0.218-0.716-0.504-1.401-0.851-2.05l1.993-4.192c-0.725-0.91-1.549-1.734-2.458-2.459l-4.193,1.994c-0.647-0.347-1.334-0.632-2.049-0.849l-1.558-4.378C17.165,0.708,16.588,0.667,16,0.667s-1.166,0.041-1.737,0.105L12.707,5.15c-0.716,0.217-1.401,0.502-2.05,0.849L6.464,4.005C5.554,4.73,4.73,5.554,4.005,6.464l1.994,4.192c-0.347,0.648-0.632,1.334-0.849,2.05l-4.378,1.557C0.708,14.834,0.667,15.412,0.667,16s0.041,1.165,0.105,1.736l4.378,1.558c0.217,0.715,0.502,1.401,0.849,2.049l-1.994,4.193c0.725,0.909,1.549,1.733,2.459,2.458l4.192-1.993c0.648,0.347,1.334,0.633,2.05,0.851l1.557,4.377c0.571,0.064,1.148,0.104,1.737,0.104c0.588,0,1.165-0.04,1.736-0.104l1.558-4.377c0.715-0.218,1.399-0.504,2.049-0.851l4.193,1.993c0.909-0.725,1.733-1.549,2.458-2.458l-1.993-4.193c0.347-0.647,0.633-1.334,0.851-2.049L31.229,17.736zM16,20.871c-2.69,0-4.872-2.182-4.872-4.871c0-2.69,2.182-4.872,4.872-4.872c2.689,0,4.871,2.182,4.871,4.872C20.871,18.689,18.689,20.871,16,20.871z" transform="scale(.55) translate(29, -16)"/><title>Link options.</title></g></g></g></g><g id="j_1511"><path id="v-23215" fill="none" stroke="#505050" stroke-width="2" d="M 2485 1940 L 2000 1940"/><path fill="#000" stroke="#000" d="M 0 0 0 0" transform="matrix(-1,1.2246468525851679e-16,-1.2246468525851679e-16,-1,2485,1940)"/><path id="v-23217" fill="#505050" stroke="#505050" d="M 20 0 L 0 10 L 20 20 z" transform="matrix(1,0,0,1,2000,1930)"/><path id="v-23216" fill="none" d="M 2485 1940 L 2000 1940" style="cursor:default"/><g><g id="v-23206" cursor="move" label-idx="0" transform="matrix(1,0,0,1,2363.75,1940)" style="cursor:default"><rect id="v-23210" width="195.1" height="63.9" fill="#111" joint-selector="rect" pointer-events="none" rx="3" ry="3" transform="matrix(1,0,0,1,-97.5,-32)"/><text id="v-23209" y=".8em" fill="#505050" font-family="Open Sans" font-size="24" font-weight="normal" joint-selector="text" pointer-events="none" text-anchor="middle" transform="matrix(1,0,0,1,0,-24.200000762939453)" xml:space="preserve"><tspan dy="0">2: Encrypts email</tspan><tspan x="0" dy="1.2em">with key</tspan></text></g><g id="v-23207" cursor="move" label-idx="1" transform="matrix(1,0,0,1,2363.75,1980.800048828125)" style="cursor:default"><rect id="v-23212" width="49.973" height="24.862" fill="#111" joint-selector="rect" pointer-events="none" rx="3" ry="3" transform="matrix(1,0,0,1,-25,-12.399999618530273)"/><text id="v-23211" y=".8em" fill="#505050" font-family="Open Sans" font-size="17" font-weight="normal" joint-selector="text" pointer-events="none" text-anchor="middle" transform="matrix(1,0,0,1,0,-6.900000095367432)" xml:space="preserve"><tspan dy="0">[KMS]</tspan></text></g><g id="v-23208" cursor="move" label-idx="2" transform="matrix(1,0,0,1,2353.75,1989.199951171875)" style="cursor:default"><rect id="v-23214" width="0" height="0" fill="#fff" display="none" joint-selector="rect" rx="3" ry="3" transform="matrix(1,0,0,1,0,0)"/></g></g><g id="v-23219" display="none"><g id="v-23204"><path d="M 26 0 L 0 13 L 26 26 z" end="source"/></g><g id="v-23205"><path d="M 26 0 L 0 13 L 26 26 z" end="target"/></g></g><g id="v-23218" display="none"><g id="v-23203"><g event="remove" transform="translate(2444.9999999999995, 1940)"><circle r="11"/><path d="M24.778,21.419 19.276,15.917 24.777,10.415 21.949,7.585 16.447,13.087 10.945,7.585 8.117,10.415 13.618,15.917 8.116,21.419 10.946,24.248 16.447,18.746 21.948,24.248z" transform="scale(.8) translate(-16, -16)"/><title>Remove link.</title></g><g event="link:options" transform="translate(2444.9999999999995, 1940)"><circle r="11" transform="translate(25)"/><path fill="#fff" d="M31.229,17.736c0.064-0.571,0.104-1.148,0.104-1.736s-0.04-1.166-0.104-1.737l-4.377-1.557c-0.218-0.716-0.504-1.401-0.851-2.05l1.993-4.192c-0.725-0.91-1.549-1.734-2.458-2.459l-4.193,1.994c-0.647-0.347-1.334-0.632-2.049-0.849l-1.558-4.378C17.165,0.708,16.588,0.667,16,0.667s-1.166,0.041-1.737,0.105L12.707,5.15c-0.716,0.217-1.401,0.502-2.05,0.849L6.464,4.005C5.554,4.73,4.73,5.554,4.005,6.464l1.994,4.192c-0.347,0.648-0.632,1.334-0.849,2.05l-4.378,1.557C0.708,14.834,0.667,15.412,0.667,16s0.041,1.165,0.105,1.736l4.378,1.558c0.217,0.715,0.502,1.401,0.849,2.049l-1.994,4.193c0.725,0.909,1.549,1.733,2.459,2.458l4.192-1.993c0.648,0.347,1.334,0.633,2.05,0.851l1.557,4.377c0.571,0.064,1.148,0.104,1.737,0.104c0.588,0,1.165-0.04,1.736-0.104l1.558-4.377c0.715-0.218,1.399-0.504,2.049-0.851l4.193,1.993c0.909-0.725,1.733-1.549,2.458-2.458l-1.993-4.193c0.347-0.647,0.633-1.334,0.851-2.049L31.229,17.736zM16,20.871c-2.69,0-4.872-2.182-4.872-4.871c0-2.69,2.182-4.872,4.872-4.872c2.689,0,4.871,2.182,4.871,4.872C20.871,18.689,18.689,20.871,16,20.871z" transform="scale(.55) translate(29, -16)"/><title>Link options.</title></g></g></g></g><g id="j_1512"><path id="v-23235" fill="none" stroke="#505050" stroke-width="2" d="M 2530 1790 L 2375 1660"/><path fill="#000" stroke="#000" d="M 0 0 0 0" transform="matrix(-0.7676148414611816,-0.6409114599227905,0.6409114599227905,-0.7676148414611816,2530.35009765625,1790)"/><path id="v-23237" fill="#505050" stroke="#505050" d="M 20 0 L 0 10 L 20 20 z" transform="matrix(0.7676147818565369,0.6409115195274353,-0.6409115195274353,0.7676147818565369,2381.05908203125,1652.3238525390625)"/><path id="v-23236" fill="none" d="M 2530 1790 L 2375 1660" style="cursor:default"/><g><g id="v-23226" cursor="move" label-idx="0" transform="matrix(1,0,0,1,2452.5,1725)" style="cursor:default"><rect id="v-23230" width="199.3" height="63.9" fill="#111" joint-selector="rect" pointer-events="none" rx="3" ry="3" transform="matrix(1,0,0,1,-99.5999984741211,-32)"/><text id="v-23229" y=".8em" fill="#505050" font-family="Open Sans" font-size="24" font-weight="normal" joint-selector="text" pointer-events="none" text-anchor="middle" transform="matrix(1,0,0,1,0,-24.200000762939453)" xml:space="preserve"><tspan dy="0">3: Publishes</tspan><tspan x="0" dy="1.2em">email notification</tspan></text></g><g id="v-23227" cursor="move" label-idx="1" transform="matrix(1,0,0,1,2452.5,1765.800048828125)" style="cursor:default"><rect id="v-23232" width="46.36" height="24.862" fill="#111" joint-selector="rect" pointer-events="none" rx="3" ry="3" transform="matrix(1,0,0,1,-23.200000762939453,-12.399999618530273)"/><text id="v-23231" y=".8em" fill="#505050" font-family="Open Sans" font-size="17" font-weight="normal" joint-selector="text" pointer-events="none" text-anchor="middle" transform="matrix(1,0,0,1,0,-6.900000095367432)" xml:space="preserve"><tspan dy="0">[SNS]</tspan></text></g><g id="v-23228" cursor="move" label-idx="2" transform="matrix(1,0,0,1,2442.5,1774.199951171875)" style="cursor:default"><rect id="v-23234" width="0" height="0" fill="#fff" display="none" joint-selector="rect" rx="3" ry="3" transform="matrix(1,0,0,1,0,0)"/></g></g><g id="v-23239" display="none"><g id="v-23224"><path d="M 26 0 L 0 13 L 26 26 z" end="source"/></g><g id="v-23225"><path d="M 26 0 L 0 13 L 26 26 z" end="target"/></g></g><g id="v-23238" display="none"><g id="v-23223"><g event="remove" transform="translate(2499.352338274968, 1764.295509520941)"><circle r="11"/><path d="M24.778,21.419 19.276,15.917 24.777,10.415 21.949,7.585 16.447,13.087 10.945,7.585 8.117,10.415 13.618,15.917 8.116,21.419 10.946,24.248 16.447,18.746 21.948,24.248z" transform="scale(.8) translate(-16, -16)"/><title>Remove link.</title></g><g event="link:options" transform="translate(2499.352338274968, 1764.295509520941)"><circle r="11" transform="translate(25)"/><path fill="#fff" d="M31.229,17.736c0.064-0.571,0.104-1.148,0.104-1.736s-0.04-1.166-0.104-1.737l-4.377-1.557c-0.218-0.716-0.504-1.401-0.851-2.05l1.993-4.192c-0.725-0.91-1.549-1.734-2.458-2.459l-4.193,1.994c-0.647-0.347-1.334-0.632-2.049-0.849l-1.558-4.378C17.165,0.708,16.588,0.667,16,0.667s-1.166,0.041-1.737,0.105L12.707,5.15c-0.716,0.217-1.401,0.502-2.05,0.849L6.464,4.005C5.554,4.73,4.73,5.554,4.005,6.464l1.994,4.192c-0.347,0.648-0.632,1.334-0.849,2.05l-4.378,1.557C0.708,14.834,0.667,15.412,0.667,16s0.041,1.165,0.105,1.736l4.378,1.558c0.217,0.715,0.502,1.401,0.849,2.049l-1.994,4.193c0.725,0.909,1.549,1.733,2.459,2.458l4.192-1.993c0.648,0.347,1.334,0.633,2.05,0.851l1.557,4.377c0.571,0.064,1.148,0.104,1.737,0.104c0.588,0,1.165-0.04,1.736-0.104l1.558-4.377c0.715-0.218,1.399-0.504,2.049-0.851l4.193,1.993c0.909-0.725,1.733-1.549,2.458-2.458l-1.993-4.193c0.347-0.647,0.633-1.334,0.851-2.049L31.229,17.736zM16,20.871c-2.69,0-4.872-2.182-4.872-4.871c0-2.69,2.182-4.872,4.872-4.872c2.689,0,4.871,2.182,4.871,4.872C20.871,18.689,18.689,20.871,16,20.871z" transform="scale(.55) translate(29, -16)"/><title>Link options.</title></g></g></g></g><g id="j_1513"><path id="v-23255" fill="none" stroke="#505050" stroke-width="2" d="M 2048 1660 L 1922 1790"/><path fill="#000" stroke="#000" d="M 0 0 0 0" transform="matrix(-0.6987485885620117,0.715367317199707,-0.715367317199707,-0.6987485885620117,2048.489990234375,1660)"/><path id="v-23257" fill="#505050" stroke="#505050" d="M 20 0 L 0 10 L 20 20 z" transform="matrix(0.6987485885620117,-0.715367317199707,0.715367317199707,0.6987485885620117,1914.3563232421875,1783.012451171875)"/><path id="v-23256" fill="none" d="M 2048 1660 L 1922 1790" style="cursor:default"/><g><g id="v-23246" cursor="move" label-idx="0" transform="matrix(1,0,0,1,1985,1725)" style="cursor:default"><rect id="v-23250" width="131.9" height="63.9" fill="#111" joint-selector="rect" pointer-events="none" rx="3" ry="3" transform="matrix(1,0,0,1,-65.9000015258789,-32)"/><text id="v-23249" y=".8em" fill="#505050" font-family="Open Sans" font-size="24" font-weight="normal" joint-selector="text" pointer-events="none" text-anchor="middle" transform="matrix(1,0,0,1,0,-24.200000762939453)" xml:space="preserve"><tspan dy="0">4: Decrypts</tspan><tspan x="0" dy="1.2em">notification</tspan></text></g><g id="v-23247" cursor="move" label-idx="1" transform="matrix(1,0,0,1,1985,1765.800048828125)" style="cursor:default"><rect id="v-23252" width="49.973" height="24.862" fill="#111" joint-selector="rect" pointer-events="none" rx="3" ry="3" transform="matrix(1,0,0,1,-25,-12.399999618530273)"/><text id="v-23251" y=".8em" fill="#505050" font-family="Open Sans" font-size="17" font-weight="normal" joint-selector="text" pointer-events="none" text-anchor="middle" transform="matrix(1,0,0,1,0,-6.900000095367432)" xml:space="preserve"><tspan dy="0">[KMS]</tspan></text></g><g id="v-23248" cursor="move" label-idx="2" transform="matrix(1,0,0,1,1975,1774.199951171875)" style="cursor:default"><rect id="v-23254" width="0" height="0" fill="#fff" display="none" joint-selector="rect" rx="3" ry="3" transform="matrix(1,0,0,1,0,0)"/></g></g><g id="v-23259" display="none"><g id="v-23244"><path d="M 26 0 L 0 13 L 26 26 z" end="source"/></g><g id="v-23245"><path d="M 26 0 L 0 13 L 26 26 z" end="target"/></g></g><g id="v-23258" display="none"><g id="v-23243"><g event="remove" transform="translate(2020.1610685904457, 1688.722707009858)"><circle r="11"/><path d="M24.778,21.419 19.276,15.917 24.777,10.415 21.949,7.585 16.447,13.087 10.945,7.585 8.117,10.415 13.618,15.917 8.116,21.419 10.946,24.248 16.447,18.746 21.948,24.248z" transform="scale(.8) translate(-16, -16)"/><title>Remove link.</title></g><g event="link:options" transform="translate(2020.1610685904457, 1688.722707009858)"><circle r="11" transform="translate(25)"/><path fill="#fff" d="M31.229,17.736c0.064-0.571,0.104-1.148,0.104-1.736s-0.04-1.166-0.104-1.737l-4.377-1.557c-0.218-0.716-0.504-1.401-0.851-2.05l1.993-4.192c-0.725-0.91-1.549-1.734-2.458-2.459l-4.193,1.994c-0.647-0.347-1.334-0.632-2.049-0.849l-1.558-4.378C17.165,0.708,16.588,0.667,16,0.667s-1.166,0.041-1.737,0.105L12.707,5.15c-0.716,0.217-1.401,0.502-2.05,0.849L6.464,4.005C5.554,4.73,4.73,5.554,4.005,6.464l1.994,4.192c-0.347,0.648-0.632,1.334-0.849,2.05l-4.378,1.557C0.708,14.834,0.667,15.412,0.667,16s0.041,1.165,0.105,1.736l4.378,1.558c0.217,0.715,0.502,1.401,0.849,2.049l-1.994,4.193c0.725,0.909,1.549,1.733,2.459,2.458l4.192-1.993c0.648,0.347,1.334,0.633,2.05,0.851l1.557,4.377c0.571,0.064,1.148,0.104,1.737,0.104c0.588,0,1.165-0.04,1.736-0.104l1.558-4.377c0.715-0.218,1.399-0.504,2.049-0.851l4.193,1.993c0.909-0.725,1.733-1.549,2.458-2.458l-1.993-4.193c0.347-0.647,0.633-1.334,0.851-2.049L31.229,17.736zM16,20.871c-2.69,0-4.872-2.182-4.872-4.871c0-2.69,2.182-4.872,4.872-4.872c2.689,0,4.871,2.182,4.871,4.872C20.871,18.689,18.689,20.871,16,20.871z" transform="scale(.55) translate(29, -16)"/><title>Link options.</title></g></g></g></g><g id="j_1514"><path id="v-23276" fill="none" stroke="#505050" stroke-width="2" d="M 2195 1660 L 2196 2301 C 2196 2307.6666666666665 2192.6666666666665 2312 2186 2314 L 1996 2363"/><path fill="#000" stroke="#000" d="M 0 0 0 0" transform="matrix(0.0012442285660654306,0.9999992251396179,-0.9999992251396179,0.0012442285660654306,2195.18994140625,1660)"/><path id="v-23278" fill="#505050" stroke="#505050" d="M 20 0 L 0 10 L 20 20 z" transform="matrix(0.9681048393249512,-0.25054553151130676,0.25054553151130676,0.9681048393249512,1993.4945068359375,2353.0791015625)"/><path id="v-23277" fill="none" d="M 2195 1660 L 2196 2301 C 2196 2307.6666666666665 2192.6666666666665 2312 2186 2314 L 1996 2363" style="cursor:default"/><g><g id="v-23267" cursor="move" label-idx="0" transform="matrix(1,0,0,1,2195.6669921875,2087.509521484375)" style="cursor:default"><rect id="v-23271" width="155.1" height="63.9" fill="#111" joint-selector="rect" pointer-events="none" rx="3" ry="3" transform="matrix(1,0,0,1,-77.5,-32)"/><text id="v-23270" y=".8em" fill="#505050" font-family="Open Sans" font-size="24" font-weight="normal" joint-selector="text" pointer-events="none" text-anchor="middle" transform="matrix(1,0,0,1,0,-24.200000762939453)" xml:space="preserve"><tspan dy="0">4: Adds email</tspan><tspan x="0" dy="1.2em">notification</tspan></text></g><g id="v-23268" cursor="move" label-idx="1" transform="matrix(1,0,0,1,2195.6669921875,2128.3095703125)" style="cursor:default"><rect id="v-23273" width="46.785" height="24.862" fill="#111" joint-selector="rect" pointer-events="none" rx="3" ry="3" transform="matrix(1,0,0,1,-23.399999618530273,-12.399999618530273)"/><text id="v-23272" y=".8em" fill="#505050" font-family="Open Sans" font-size="17" font-weight="normal" joint-selector="text" pointer-events="none" text-anchor="middle" transform="matrix(1,0,0,1,0,-6.900000095367432)" xml:space="preserve"><tspan dy="0">[SQS]</tspan></text></g><g id="v-23269" cursor="move" label-idx="2" transform="matrix(1,0,0,1,2185.6669921875,2136.70947265625)" style="cursor:default"><rect id="v-23275" width="0" height="0" fill="#fff" display="none" joint-selector="rect" rx="3" ry="3" transform="matrix(1,0,0,1,0,0)"/></g></g><g display="none"><g id="v-23264" transform="translate(2196, 2311)"><circle r="10" idx="0"/><path d="M16,5.333c-7.732,0-14,4.701-14,10.5c0,1.982,0.741,3.833,2.016,5.414L2,25.667l5.613-1.441c2.339,1.317,5.237,2.107,8.387,2.107c7.732,0,14-4.701,14-10.5C30,10.034,23.732,5.333,16,5.333z" idx="0" transform="translate(5, -33)"/><path d="M24.778,21.419 19.276,15.917 24.777,10.415 21.949,7.585 16.447,13.087 10.945,7.585 8.117,10.415 13.618,15.917 8.116,21.419 10.946,24.248 16.447,18.746 21.948,24.248z" idx="0" transform="scale(.8) translate(9.5, -37)"><title>Remove vertex.</title></path></g></g><g id="v-23280" display="none"><g id="v-23265"><path d="M 26 0 L 0 13 L 26 26 z" end="source"/></g><g id="v-23266"><path d="M 26 0 L 0 13 L 26 26 z" end="target"/></g></g><g id="v-23279" display="none"><g id="v-23263"><g event="remove" transform="translate(2195.0624024201625, 1699.9999513241949)"><circle r="11"/><path d="M24.778,21.419 19.276,15.917 24.777,10.415 21.949,7.585 16.447,13.087 10.945,7.585 8.117,10.415 13.618,15.917 8.116,21.419 10.946,24.248 16.447,18.746 21.948,24.248z" transform="scale(.8) translate(-16, -16)"/><title>Remove link.</title></g><g event="link:options" transform="translate(2195.0624024201625, 1699.9999513241949)"><circle r="11" transform="translate(25)"/><path fill="#fff" d="M31.229,17.736c0.064-0.571,0.104-1.148,0.104-1.736s-0.04-1.166-0.104-1.737l-4.377-1.557c-0.218-0.716-0.504-1.401-0.851-2.05l1.993-4.192c-0.725-0.91-1.549-1.734-2.458-2.459l-4.193,1.994c-0.647-0.347-1.334-0.632-2.049-0.849l-1.558-4.378C17.165,0.708,16.588,0.667,16,0.667s-1.166,0.041-1.737,0.105L12.707,5.15c-0.716,0.217-1.401,0.502-2.05,0.849L6.464,4.005C5.554,4.73,4.73,5.554,4.005,6.464l1.994,4.192c-0.347,0.648-0.632,1.334-0.849,2.05l-4.378,1.557C0.708,14.834,0.667,15.412,0.667,16s0.041,1.165,0.105,1.736l4.378,1.558c0.217,0.715,0.502,1.401,0.849,2.049l-1.994,4.193c0.725,0.909,1.549,1.733,2.459,2.458l4.192-1.993c0.648,0.347,1.334,0.633,2.05,0.851l1.557,4.377c0.571,0.064,1.148,0.104,1.737,0.104c0.588,0,1.165-0.04,1.736-0.104l1.558-4.377c0.715-0.218,1.399-0.504,2.049-0.851l4.193,1.993c0.909-0.725,1.733-1.549,2.458-2.458l-1.993-4.193c0.347-0.647,0.633-1.334,0.851-2.049L31.229,17.736zM16,20.871c-2.69,0-4.872-2.182-4.872-4.871c0-2.69,2.182-4.872,4.872-4.872c2.689,0,4.871,2.182,4.871,4.872C20.871,18.689,18.689,20.871,16,20.871z" transform="scale(.55) translate(29, -16)"/><title>Link options.</title></g></g></g></g><g id="j_1515"><path id="v-23296" fill="none" stroke="#505050" stroke-width="2" d="M 1772 2271 L 1774 2090"/><path fill="#000" stroke="#000" d="M 0 0 0 0" transform="matrix(0.008287129923701286,-0.9999656677246094,0.9999656677246094,0.008287129923701286,1772.25,2271)"/><path id="v-23298" fill="#505050" stroke="#505050" d="M 20 0 L 0 10 L 20 20 z" transform="matrix(-0.008286996744573116,0.9999656677246094,-0.9999656677246094,-0.008286996744573116,1783.7496337890625,2090.0830078125)"/><path id="v-23297" fill="none" d="M 1772 2271 L 1774 2090" style="cursor:default"/><g><g id="v-23287" cursor="move" label-idx="0" transform="matrix(1,0,0,1,1773,2180.5)" style="cursor:default"><rect id="v-23291" width="131.9" height="63.9" fill="#111" joint-selector="rect" pointer-events="none" rx="3" ry="3" transform="matrix(1,0,0,1,-65.9000015258789,-32)"/><text id="v-23290" y=".8em" fill="#505050" font-family="Open Sans" font-size="24" font-weight="normal" joint-selector="text" pointer-events="none" text-anchor="middle" transform="matrix(1,0,0,1,0,-24.200000762939453)" xml:space="preserve"><tspan dy="0">5: Decrypts</tspan><tspan x="0" dy="1.2em">notification</tspan></text></g><g id="v-23288" cursor="move" label-idx="1" transform="matrix(1,0,0,1,1773,2221.300048828125)" style="cursor:default"><rect id="v-23293" width="49.973" height="24.862" fill="#111" joint-selector="rect" pointer-events="none" rx="3" ry="3" transform="matrix(1,0,0,1,-25,-12.399999618530273)"/><text id="v-23292" y=".8em" fill="#505050" font-family="Open Sans" font-size="17" font-weight="normal" joint-selector="text" pointer-events="none" text-anchor="middle" transform="matrix(1,0,0,1,0,-6.900000095367432)" xml:space="preserve"><tspan dy="0">[KMS]</tspan></text></g><g id="v-23289" cursor="move" label-idx="2" transform="matrix(1,0,0,1,1763,2229.699951171875)" style="cursor:default"><rect id="v-23295" width="0" height="0" fill="#fff" display="none" joint-selector="rect" rx="3" ry="3" transform="matrix(1,0,0,1,0,0)"/></g></g><g id="v-23300" display="none"><g id="v-23285"><path d="M 26 0 L 0 13 L 26 26 z" end="source"/></g><g id="v-23286"><path d="M 26 0 L 0 13 L 26 26 z" end="target"/></g></g><g id="v-23299" display="none"><g id="v-23284"><g event="remove" transform="translate(1772.441961970118, 2231.002441704312)"><circle r="11"/><path d="M24.778,21.419 19.276,15.917 24.777,10.415 21.949,7.585 16.447,13.087 10.945,7.585 8.117,10.415 13.618,15.917 8.116,21.419 10.946,24.248 16.447,18.746 21.948,24.248z" transform="scale(.8) translate(-16, -16)"/><title>Remove link.</title></g><g event="link:options" transform="translate(1772.441961970118, 2231.002441704312)"><circle r="11" transform="translate(25)"/><path fill="#fff" d="M31.229,17.736c0.064-0.571,0.104-1.148,0.104-1.736s-0.04-1.166-0.104-1.737l-4.377-1.557c-0.218-0.716-0.504-1.401-0.851-2.05l1.993-4.192c-0.725-0.91-1.549-1.734-2.458-2.459l-4.193,1.994c-0.647-0.347-1.334-0.632-2.049-0.849l-1.558-4.378C17.165,0.708,16.588,0.667,16,0.667s-1.166,0.041-1.737,0.105L12.707,5.15c-0.716,0.217-1.401,0.502-2.05,0.849L6.464,4.005C5.554,4.73,4.73,5.554,4.005,6.464l1.994,4.192c-0.347,0.648-0.632,1.334-0.849,2.05l-4.378,1.557C0.708,14.834,0.667,15.412,0.667,16s0.041,1.165,0.105,1.736l4.378,1.558c0.217,0.715,0.502,1.401,0.849,2.049l-1.994,4.193c0.725,0.909,1.549,1.733,2.459,2.458l4.192-1.993c0.648,0.347,1.334,0.633,2.05,0.851l1.557,4.377c0.571,0.064,1.148,0.104,1.737,0.104c0.588,0,1.165-0.04,1.736-0.104l1.558-4.377c0.715-0.218,1.399-0.504,2.049-0.851l4.193,1.993c0.909-0.725,1.733-1.549,2.458-2.458l-1.993-4.193c0.347-0.647,0.633-1.334,0.851-2.049L31.229,17.736zM16,20.871c-2.69,0-4.872-2.182-4.872-4.871c0-2.69,2.182-4.872,4.872-4.872c2.689,0,4.871,2.182,4.871,4.872C20.871,18.689,18.689,20.871,16,20.871z" transform="scale(.55) translate(29, -16)"/><title>Link options.</title></g></g></g></g><g id="j_1516"><path id="v-23317" fill="none" stroke="#505050" stroke-width="2" d="M 1201 1001 L 1369 1966 C 1370.3333333333333 1972.6666666666665 1373.3333333333333 1978.3333333333333 1378 1983 L 1636 2271"/><path fill="#000" stroke="#000" d="M 0 0 0 0" transform="matrix(0.17164014279842377,0.985159695148468,-0.985159695148468,0.17164014279842377,1201.1300048828125,1001)"/><path id="v-23319" fill="#505050" stroke="#505050" d="M 20 0 L 0 10 L 20 20 z" transform="matrix(-0.6685049533843994,-0.7437076568603516,0.7437076568603516,-0.6685049533843994,1628.73291015625,2277.68505859375)"/><path id="v-23318" fill="none" d="M 1201 1001 L 1369 1966 C 1370.3333333333333 1972.6666666666665 1373.3333333333333 1978.3333333333333 1378 1983 L 1636 2271" style="cursor:default"/><g><g id="v-23308" cursor="move" label-idx="0" transform="matrix(1,0,0,1,1319.8330078125,1683.582275390625)" style="cursor:default"><rect id="v-23312" width="184.6" height="92.7" fill="#111" joint-selector="rect" pointer-events="none" rx="3" ry="3" transform="matrix(1,0,0,1,-92.30000305175781,-46.400001525878906)"/><text id="v-23311" y=".8em" fill="#505050" font-family="Open Sans" font-size="24" font-weight="normal" joint-selector="text" pointer-events="none" text-anchor="middle" transform="matrix(1,0,0,1,0,-38.599998474121094)" xml:space="preserve"><tspan dy="0">5: Pulls and</tspan><tspan x="0" dy="1.2em">processes email</tspan><tspan x="0" dy="1.2em">notification</tspan></text></g><g id="v-23309" cursor="move" label-idx="1" transform="matrix(1,0,0,1,1319.8330078125,1738.7823486328125)" style="cursor:default"><rect id="v-23314" width="76.96" height="24.862" fill="#111" joint-selector="rect" pointer-events="none" rx="3" ry="3" transform="matrix(1,0,0,1,-38.5,-12.399999618530273)"/><text id="v-23313" y=".8em" fill="#505050" font-family="Open Sans" font-size="17" font-weight="normal" joint-selector="text" pointer-events="none" text-anchor="middle" transform="matrix(1,0,0,1,0,-6.900000095367432)" xml:space="preserve"><tspan dy="0">[SQS API]</tspan></text></g><g id="v-23310" cursor="move" label-idx="2" transform="matrix(1,0,0,1,1309.8330078125,1747.1822509765625)" style="cursor:default"><rect id="v-23316" width="0" height="0" fill="#fff" display="none" joint-selector="rect" rx="3" ry="3" transform="matrix(1,0,0,1,0,0)"/></g></g><g display="none"><g id="v-23305" transform="translate(1371, 1976)"><circle r="10" idx="0"/><path d="M16,5.333c-7.732,0-14,4.701-14,10.5c0,1.982,0.741,3.833,2.016,5.414L2,25.667l5.613-1.441c2.339,1.317,5.237,2.107,8.387,2.107c7.732,0,14-4.701,14-10.5C30,10.034,23.732,5.333,16,5.333z" idx="0" transform="translate(5, -33)"/><path d="M24.778,21.419 19.276,15.917 24.777,10.415 21.949,7.585 16.447,13.087 10.945,7.585 8.117,10.415 13.618,15.917 8.116,21.419 10.946,24.248 16.447,18.746 21.948,24.248z" idx="0" transform="scale(.8) translate(9.5, -37)"><title>Remove vertex.</title></path></g></g><g id="v-23321" display="none"><g id="v-23306"><path d="M 26 0 L 0 13 L 26 26 z" end="source"/></g><g id="v-23307"><path d="M 26 0 L 0 13 L 26 26 z" end="target"/></g></g><g id="v-23320" display="none"><g id="v-23304"><g event="remove" transform="translate(1207.8605403945462, 1040.4072707186733)"><circle r="11"/><path d="M24.778,21.419 19.276,15.917 24.777,10.415 21.949,7.585 16.447,13.087 10.945,7.585 8.117,10.415 13.618,15.917 8.116,21.419 10.946,24.248 16.447,18.746 21.948,24.248z" transform="scale(.8) translate(-16, -16)"/><title>Remove link.</title></g><g event="link:options" transform="translate(1207.8605403945462, 1040.4072707186733)"><circle r="11" transform="translate(25)"/><path fill="#fff" d="M31.229,17.736c0.064-0.571,0.104-1.148,0.104-1.736s-0.04-1.166-0.104-1.737l-4.377-1.557c-0.218-0.716-0.504-1.401-0.851-2.05l1.993-4.192c-0.725-0.91-1.549-1.734-2.458-2.459l-4.193,1.994c-0.647-0.347-1.334-0.632-2.049-0.849l-1.558-4.378C17.165,0.708,16.588,0.667,16,0.667s-1.166,0.041-1.737,0.105L12.707,5.15c-0.716,0.217-1.401,0.502-2.05,0.849L6.464,4.005C5.554,4.73,4.73,5.554,4.005,6.464l1.994,4.192c-0.347,0.648-0.632,1.334-0.849,2.05l-4.378,1.557C0.708,14.834,0.667,15.412,0.667,16s0.041,1.165,0.105,1.736l4.378,1.558c0.217,0.715,0.502,1.401,0.849,2.049l-1.994,4.193c0.725,0.909,1.549,1.733,2.459,2.458l4.192-1.993c0.648,0.347,1.334,0.633,2.05,0.851l1.557,4.377c0.571,0.064,1.148,0.104,1.737,0.104c0.588,0,1.165-0.04,1.736-0.104l1.558-4.377c0.715-0.218,1.399-0.504,2.049-0.851l4.193,1.993c0.909-0.725,1.733-1.549,2.458-2.458l-1.993-4.193c0.347-0.647,0.633-1.334,0.851-2.049L31.229,17.736zM16,20.871c-2.69,0-4.872-2.182-4.872-4.871c0-2.69,2.182-4.872,4.872-4.872c2.689,0,4.871,2.182,4.871,4.872C20.871,18.689,18.689,20.871,16,20.871z" transform="scale(.55) translate(29, -16)"/><title>Link options.</title></g></g></g></g><g id="j_1517"><path id="v-23337" fill="none" stroke="#505050" stroke-width="2" d="M 1771 1345 L 1774 1790"/><path fill="#000" stroke="#000" d="M 0 0 0 0" transform="matrix(0.006696468684822321,0.9999775886535645,-0.9999775886535645,0.006696468684822321,1771.010009765625,1345)"/><path id="v-23339" fill="#505050" stroke="#505050" d="M 20 0 L 0 10 L 20 20 z" transform="matrix(-0.006696735043078661,-0.9999775886535645,0.9999775886535645,-0.006696735043078661,1763.990234375,1790.0670166015625)"/><path id="v-23338" fill="none" d="M 1771 1345 L 1774 1790" style="cursor:default"/><g><g id="v-23328" cursor="move" label-idx="0" transform="matrix(1,0,0,1,1772.5,1567.5)" style="cursor:default"><rect id="v-23332" width="197.95" height="63.9" fill="#111" joint-selector="rect" pointer-events="none" rx="3" ry="3" transform="matrix(1,0,0,1,-99,-32)"/><text id="v-23331" y=".8em" fill="#505050" font-family="Open Sans" font-size="24" font-weight="normal" joint-selector="text" pointer-events="none" text-anchor="middle" transform="matrix(1,0,0,1,0,-24.200000762939453)" xml:space="preserve"><tspan dy="0">6: Decrypts email</tspan><tspan x="0" dy="1.2em">body</tspan></text></g><g id="v-23329" cursor="move" label-idx="1" transform="matrix(1,0,0,1,1772.5,1608.300048828125)" style="cursor:default"><rect id="v-23334" width="49.973" height="24.862" fill="#111" joint-selector="rect" pointer-events="none" rx="3" ry="3" transform="matrix(1,0,0,1,-25,-12.399999618530273)"/><text id="v-23333" y=".8em" fill="#505050" font-family="Open Sans" font-size="17" font-weight="normal" joint-selector="text" pointer-events="none" text-anchor="middle" transform="matrix(1,0,0,1,0,-6.900000095367432)" xml:space="preserve"><tspan dy="0">[KMS]</tspan></text></g><g id="v-23330" cursor="move" label-idx="2" transform="matrix(1,0,0,1,1762.5,1616.699951171875)" style="cursor:default"><rect id="v-23336" width="0" height="0" fill="#fff" display="none" joint-selector="rect" rx="3" ry="3" transform="matrix(1,0,0,1,0,0)"/></g></g><g id="v-23341" display="none"><g id="v-23326"><path d="M 26 0 L 0 13 L 26 26 z" end="source"/></g><g id="v-23327"><path d="M 26 0 L 0 13 L 26 26 z" end="target"/></g></g><g id="v-23340" display="none"><g id="v-23325"><g event="remove" transform="translate(1771.2696567936284, 1384.9990910548433)"><circle r="11"/><path d="M24.778,21.419 19.276,15.917 24.777,10.415 21.949,7.585 16.447,13.087 10.945,7.585 8.117,10.415 13.618,15.917 8.116,21.419 10.946,24.248 16.447,18.746 21.948,24.248z" transform="scale(.8) translate(-16, -16)"/><title>Remove link.</title></g><g event="link:options" transform="translate(1771.2696567936284, 1384.9990910548433)"><circle r="11" transform="translate(25)"/><path fill="#fff" d="M31.229,17.736c0.064-0.571,0.104-1.148,0.104-1.736s-0.04-1.166-0.104-1.737l-4.377-1.557c-0.218-0.716-0.504-1.401-0.851-2.05l1.993-4.192c-0.725-0.91-1.549-1.734-2.458-2.459l-4.193,1.994c-0.647-0.347-1.334-0.632-2.049-0.849l-1.558-4.378C17.165,0.708,16.588,0.667,16,0.667s-1.166,0.041-1.737,0.105L12.707,5.15c-0.716,0.217-1.401,0.502-2.05,0.849L6.464,4.005C5.554,4.73,4.73,5.554,4.005,6.464l1.994,4.192c-0.347,0.648-0.632,1.334-0.849,2.05l-4.378,1.557C0.708,14.834,0.667,15.412,0.667,16s0.041,1.165,0.105,1.736l4.378,1.558c0.217,0.715,0.502,1.401,0.849,2.049l-1.994,4.193c0.725,0.909,1.549,1.733,2.459,2.458l4.192-1.993c0.648,0.347,1.334,0.633,2.05,0.851l1.557,4.377c0.571,0.064,1.148,0.104,1.737,0.104c0.588,0,1.165-0.04,1.736-0.104l1.558-4.377c0.715-0.218,1.399-0.504,2.049-0.851l4.193,1.993c0.909-0.725,1.733-1.549,2.458-2.458l-1.993-4.193c0.347-0.647,0.633-1.334,0.851-2.049L31.229,17.736zM16,20.871c-2.69,0-4.872-2.182-4.872-4.871c0-2.69,2.182-4.872,4.872-4.872c2.689,0,4.871,2.182,4.871,4.872C20.871,18.689,18.689,20.871,16,20.871z" transform="scale(.55) translate(29, -16)"/><title>Link options.</title></g></g></g></g><g id="j_1518"><path id="v-23358" fill="none" stroke="#505050" stroke-width="2" d="M 1286 1001 L 1391 1144 C 1395 1149.3333333333333 1400.3333333333333 1152.3333333333333 1407 1153 L 1545 1169"/><path fill="#000" stroke="#000" d="M 0 0 0 0" transform="matrix(0.5935680270195007,0.804783821105957,-0.804783821105957,0.5935680270195007,1285.6300048828125,1001)"/><path id="v-23360" fill="#505050" stroke="#505050" d="M 20 0 L 0 10 L 20 20 z" transform="matrix(-0.9934218525886536,-0.1145121157169342,0.1145121157169342,-0.9934218525886536,1543.8548583984375,1178.9942626953125)"/><path id="v-23359" fill="none" d="M 1286 1001 L 1391 1144 C 1395 1149.3333333333333 1400.3333333333333 1152.3333333333333 1407 1153 L 1545 1169" style="cursor:default"/><g><g id="v-23349" cursor="move" label-idx="0" transform="matrix(1,0,0,1,1385.213134765625,1136.1187744140625)" style="cursor:default"><rect id="v-23353" width="201.7" height="63.9" fill="#111" joint-selector="rect" pointer-events="none" rx="3" ry="3" transform="matrix(1,0,0,1,-100.80000305175781,-32)"/><text id="v-23352" y=".8em" fill="#505050" font-family="Open Sans" font-size="24" font-weight="normal" joint-selector="text" pointer-events="none" text-anchor="middle" transform="matrix(1,0,0,1,0,-24.200000762939453)" xml:space="preserve"><tspan dy="0">6: Requests email</tspan><tspan x="0" dy="1.2em">body</tspan></text></g><g id="v-23350" cursor="move" label-idx="1" transform="matrix(1,0,0,1,1385.213134765625,1176.9188232421875)" style="cursor:default"><rect id="v-23355" width="64.14" height="24.862" fill="#111" joint-selector="rect" pointer-events="none" rx="3" ry="3" transform="matrix(1,0,0,1,-32.099998474121094,-12.399999618530273)"/><text id="v-23354" y=".8em" fill="#505050" font-family="Open Sans" font-size="17" font-weight="normal" joint-selector="text" pointer-events="none" text-anchor="middle" transform="matrix(1,0,0,1,0,-6.900000095367432)" xml:space="preserve"><tspan dy="0">[S3 API]</tspan></text></g><g id="v-23351" cursor="move" label-idx="2" transform="matrix(1,0,0,1,1375.213134765625,1185.31884765625)" style="cursor:default"><rect id="v-23357" width="0" height="0" fill="#fff" display="none" joint-selector="rect" rx="3" ry="3" transform="matrix(1,0,0,1,0,0)"/></g></g><g display="none"><g id="v-23346" transform="translate(1397, 1152)"><circle r="10" idx="0"/><path d="M16,5.333c-7.732,0-14,4.701-14,10.5c0,1.982,0.741,3.833,2.016,5.414L2,25.667l5.613-1.441c2.339,1.317,5.237,2.107,8.387,2.107c7.732,0,14-4.701,14-10.5C30,10.034,23.732,5.333,16,5.333z" idx="0" transform="translate(5, -33)"/><path d="M24.778,21.419 19.276,15.917 24.777,10.415 21.949,7.585 16.447,13.087 10.945,7.585 8.117,10.415 13.618,15.917 8.116,21.419 10.946,24.248 16.447,18.746 21.948,24.248z" idx="0" transform="scale(.8) translate(9.5, -37)"><title>Remove vertex.</title></path></g></g><g id="v-23362" display="none"><g id="v-23347"><path d="M 26 0 L 0 13 L 26 26 z" end="source"/></g><g id="v-23348"><path d="M 26 0 L 0 13 L 26 26 z" end="target"/></g></g><g id="v-23361" display="none"><g id="v-23345"><g event="remove" transform="translate(1309.674091409263, 1033.2418578240438)"><circle r="11"/><path d="M24.778,21.419 19.276,15.917 24.777,10.415 21.949,7.585 16.447,13.087 10.945,7.585 8.117,10.415 13.618,15.917 8.116,21.419 10.946,24.248 16.447,18.746 21.948,24.248z" transform="scale(.8) translate(-16, -16)"/><title>Remove link.</title></g><g event="link:options" transform="translate(1309.674091409263, 1033.2418578240438)"><circle r="11" transform="translate(25)"/><path fill="#fff" d="M31.229,17.736c0.064-0.571,0.104-1.148,0.104-1.736s-0.04-1.166-0.104-1.737l-4.377-1.557c-0.218-0.716-0.504-1.401-0.851-2.05l1.993-4.192c-0.725-0.91-1.549-1.734-2.458-2.459l-4.193,1.994c-0.647-0.347-1.334-0.632-2.049-0.849l-1.558-4.378C17.165,0.708,16.588,0.667,16,0.667s-1.166,0.041-1.737,0.105L12.707,5.15c-0.716,0.217-1.401,0.502-2.05,0.849L6.464,4.005C5.554,4.73,4.73,5.554,4.005,6.464l1.994,4.192c-0.347,0.648-0.632,1.334-0.849,2.05l-4.378,1.557C0.708,14.834,0.667,15.412,0.667,16s0.041,1.165,0.105,1.736l4.378,1.558c0.217,0.715,0.502,1.401,0.849,2.049l-1.994,4.193c0.725,0.909,1.549,1.733,2.459,2.458l4.192-1.993c0.648,0.347,1.334,0.633,2.05,0.851l1.557,4.377c0.571,0.064,1.148,0.104,1.737,0.104c0.588,0,1.165-0.04,1.736-0.104l1.558-4.377c0.715-0.218,1.399-0.504,2.049-0.851l4.193,1.993c0.909-0.725,1.733-1.549,2.458-2.458l-1.993-4.193c0.347-0.647,0.633-1.334,0.851-2.049L31.229,17.736zM16,20.871c-2.69,0-4.872-2.182-4.872-4.871c0-2.69,2.182-4.872,4.872-4.872c2.689,0,4.871,2.182,4.871,4.872C20.871,18.689,18.689,20.871,16,20.871z" transform="scale(.55) translate(29, -16)"/><title>Link options.</title></g></g></g></g><g id="j_1519"><path id="v-23378" fill="none" stroke="#505050" stroke-width="2" d="M 950 857 L 670 864"/><path fill="#000" stroke="#000" d="M 0 0 0 0" transform="matrix(-0.9996621608734131,0.025991123169660568,-0.025991123169660568,-0.9996621608734131,950,856.8599853515625)"/><path id="v-23380" fill="#505050" stroke="#505050" d="M 20 0 L 0 10 L 20 20 z" transform="matrix(0.9996621608734131,-0.025991123169660568,0.025991123169660568,0.9996621608734131,669.7401123046875,854.1433715820312)"/><path id="v-23379" fill="none" d="M 950 857 L 670 864" style="cursor:default"/><g><g id="v-23369" cursor="move" label-idx="0" transform="matrix(1,0,0,1,810,860.5)" style="cursor:default"><rect id="v-23373" width="182.55" height="92.7" fill="#111" joint-selector="rect" pointer-events="none" rx="3" ry="3" transform="matrix(1,0,0,1,-91.30000305175781,-46.400001525878906)"/><text id="v-23372" y=".8em" fill="#505050" font-family="Open Sans" font-size="24" font-weight="normal" joint-selector="text" pointer-events="none" text-anchor="middle" transform="matrix(1,0,0,1,0,-38.599998474121094)" xml:space="preserve"><tspan dy="0">7: Adds reply</tspan><tspan x="0" dy="1.2em">record, updates</tspan><tspan x="0" dy="1.2em">usage</tspan></text></g><g id="v-23370" cursor="move" label-idx="1" transform="matrix(1,0,0,1,810,915.7000122070312)" style="cursor:default"><rect id="v-23375" width="114.325" height="24.862" fill="#111" joint-selector="rect" pointer-events="none" rx="3" ry="3" transform="matrix(1,0,0,1,-57.20000076293945,-12.399999618530273)"/><text id="v-23374" y=".8em" fill="#505050" font-family="Open Sans" font-size="17" font-weight="normal" joint-selector="text" pointer-events="none" text-anchor="middle" transform="matrix(1,0,0,1,0,-6.900000095367432)" xml:space="preserve"><tspan dy="0">[Django ORM]</tspan></text></g><g id="v-23371" cursor="move" label-idx="2" transform="matrix(1,0,0,1,800,924.0999755859375)" style="cursor:default"><rect id="v-23377" width="0" height="0" fill="#fff" display="none" joint-selector="rect" rx="3" ry="3" transform="matrix(1,0,0,1,0,0)"/></g></g><g id="v-23382" display="none"><g id="v-23367"><path d="M 26 0 L 0 13 L 26 26 z" end="source"/></g><g id="v-23368"><path d="M 26 0 L 0 13 L 26 26 z" end="target"/></g></g><g id="v-23381" display="none"><g id="v-23366"><g event="remove" transform="translate(910.0124941436751, 857.9996876464081)"><circle r="11"/><path d="M24.778,21.419 19.276,15.917 24.777,10.415 21.949,7.585 16.447,13.087 10.945,7.585 8.117,10.415 13.618,15.917 8.116,21.419 10.946,24.248 16.447,18.746 21.948,24.248z" transform="scale(.8) translate(-16, -16)"/><title>Remove link.</title></g><g event="link:options" transform="translate(910.0124941436751, 857.9996876464081)"><circle r="11" transform="translate(25)"/><path fill="#fff" d="M31.229,17.736c0.064-0.571,0.104-1.148,0.104-1.736s-0.04-1.166-0.104-1.737l-4.377-1.557c-0.218-0.716-0.504-1.401-0.851-2.05l1.993-4.192c-0.725-0.91-1.549-1.734-2.458-2.459l-4.193,1.994c-0.647-0.347-1.334-0.632-2.049-0.849l-1.558-4.378C17.165,0.708,16.588,0.667,16,0.667s-1.166,0.041-1.737,0.105L12.707,5.15c-0.716,0.217-1.401,0.502-2.05,0.849L6.464,4.005C5.554,4.73,4.73,5.554,4.005,6.464l1.994,4.192c-0.347,0.648-0.632,1.334-0.849,2.05l-4.378,1.557C0.708,14.834,0.667,15.412,0.667,16s0.041,1.165,0.105,1.736l4.378,1.558c0.217,0.715,0.502,1.401,0.849,2.049l-1.994,4.193c0.725,0.909,1.549,1.733,2.459,2.458l4.192-1.993c0.648,0.347,1.334,0.633,2.05,0.851l1.557,4.377c0.571,0.064,1.148,0.104,1.737,0.104c0.588,0,1.165-0.04,1.736-0.104l1.558-4.377c0.715-0.218,1.399-0.504,2.049-0.851l4.193,1.993c0.909-0.725,1.733-1.549,2.458-2.458l-1.993-4.193c0.347-0.647,0.633-1.334,0.851-2.049L31.229,17.736zM16,20.871c-2.69,0-4.872-2.182-4.872-4.871c0-2.69,2.182-4.872,4.872-4.872c2.689,0,4.871,2.182,4.871,4.872C20.871,18.689,18.689,20.871,16,20.871z" transform="scale(.55) translate(29, -16)"/><title>Link options.</title></g></g></g></g><g id="j_1520"><path id="v-23398" fill="none" stroke="#505050" stroke-width="2" d="M 1400 851 L 2485 851"/><path fill="#000" stroke="#000" d="M 0 0 0 0" transform="matrix(1,0,0,1,1400,851)"/><path id="v-23400" fill="#505050" stroke="#505050" d="M 20 0 L 0 10 L 20 20 z" transform="matrix(-1,1.2246468525851679e-16,-1.2246468525851679e-16,-1,2485,861)"/><path id="v-23399" fill="none" d="M 1400 851 L 2485 851" style="cursor:default"/><g><g id="v-23389" cursor="move" label-idx="0" transform="matrix(1,0,0,1,1942.5,851)" style="cursor:default"><rect id="v-23393" width="203.6" height="35.1" fill="#111" joint-selector="rect" pointer-events="none" rx="3" ry="3" transform="matrix(1,0,0,1,-101.80000305175781,-17.600000381469727)"/><text id="v-23392" y=".8em" fill="#505050" font-family="Open Sans" font-size="24" font-weight="normal" joint-selector="text" pointer-events="none" text-anchor="middle" transform="matrix(1,0,0,1,0,-9.800000190734863)" xml:space="preserve"><tspan dy="0">7: Forwards email</tspan></text></g><g id="v-23390" cursor="move" label-idx="1" transform="matrix(1,0,0,1,1942.5,877.4000244140625)" style="cursor:default"><rect id="v-23395" width="73.206" height="24.862" fill="#111" joint-selector="rect" pointer-events="none" rx="3" ry="3" transform="matrix(1,0,0,1,-36.599998474121094,-12.399999618530273)"/><text id="v-23394" y=".8em" fill="#505050" font-family="Open Sans" font-size="17" font-weight="normal" joint-selector="text" pointer-events="none" text-anchor="middle" transform="matrix(1,0,0,1,0,-6.900000095367432)" xml:space="preserve"><tspan dy="0">[SES API]</tspan></text></g><g id="v-23391" cursor="move" label-idx="2" transform="matrix(1,0,0,1,1932.5,885.7999877929688)" style="cursor:default"><rect id="v-23397" width="0" height="0" fill="#fff" display="none" joint-selector="rect" rx="3" ry="3" transform="matrix(1,0,0,1,0,0)"/></g></g><g id="v-23402" display="none"><g id="v-23387"><path d="M 26 0 L 0 13 L 26 26 z" end="source"/></g><g id="v-23388"><path d="M 26 0 L 0 13 L 26 26 z" end="target"/></g></g><g id="v-23401" display="none"><g id="v-23386"><g event="remove" transform="translate(1440, 851.0000000000001)"><circle r="11"/><path d="M24.778,21.419 19.276,15.917 24.777,10.415 21.949,7.585 16.447,13.087 10.945,7.585 8.117,10.415 13.618,15.917 8.116,21.419 10.946,24.248 16.447,18.746 21.948,24.248z" transform="scale(.8) translate(-16, -16)"/><title>Remove link.</title></g><g event="link:options" transform="translate(1440, 851.0000000000001)"><circle r="11" transform="translate(25)"/><path fill="#fff" d="M31.229,17.736c0.064-0.571,0.104-1.148,0.104-1.736s-0.04-1.166-0.104-1.737l-4.377-1.557c-0.218-0.716-0.504-1.401-0.851-2.05l1.993-4.192c-0.725-0.91-1.549-1.734-2.458-2.459l-4.193,1.994c-0.647-0.347-1.334-0.632-2.049-0.849l-1.558-4.378C17.165,0.708,16.588,0.667,16,0.667s-1.166,0.041-1.737,0.105L12.707,5.15c-0.716,0.217-1.401,0.502-2.05,0.849L6.464,4.005C5.554,4.73,4.73,5.554,4.005,6.464l1.994,4.192c-0.347,0.648-0.632,1.334-0.849,2.05l-4.378,1.557C0.708,14.834,0.667,15.412,0.667,16s0.041,1.165,0.105,1.736l4.378,1.558c0.217,0.715,0.502,1.401,0.849,2.049l-1.994,4.193c0.725,0.909,1.549,1.733,2.459,2.458l4.192-1.993c0.648,0.347,1.334,0.633,2.05,0.851l1.557,4.377c0.571,0.064,1.148,0.104,1.737,0.104c0.588,0,1.165-0.04,1.736-0.104l1.558-4.377c0.715-0.218,1.399-0.504,2.049-0.851l4.193,1.993c0.909-0.725,1.733-1.549,2.458-2.458l-1.993-4.193c0.347-0.647,0.633-1.334,0.851-2.049L31.229,17.736zM16,20.871c-2.69,0-4.872-2.182-4.872-4.871c0-2.69,2.182-4.872,4.872-4.872c2.689,0,4.871,2.182,4.871,4.872C20.871,18.689,18.689,20.871,16,20.871z" transform="scale(.55) translate(29, -16)"/><title>Link options.</title></g></g></g></g><g id="j_1521"><path id="v-23418" fill="none" stroke="#505050" stroke-width="2" d="M 983 1001 L 637 1272"/><path fill="#000" stroke="#000" d="M 0 0 0 0" transform="matrix(-0.7876623868942261,0.6161071062088013,-0.6161071062088013,-0.7876623868942261,983.22998046875,1001)"/><path id="v-23420" fill="#505050" stroke="#505050" d="M 20 0 L 0 10 L 20 20 z" transform="matrix(0.7876623868942261,-0.6161071062088013,0.6161071062088013,0.7876623868942261,630.60888671875,1264.1234130859375)"/><path id="v-23419" fill="none" d="M 983 1001 L 637 1272" style="cursor:default"/><g><g id="v-23409" cursor="move" label-idx="0" transform="matrix(1,0,0,1,810,1136.5)" style="cursor:default"><rect id="v-23413" width="204.35" height="63.9" fill="#111" joint-selector="rect" pointer-events="none" rx="3" ry="3" transform="matrix(1,0,0,1,-102.19999694824219,-32)"/><text id="v-23412" y=".8em" fill="#505050" font-family="Open Sans" font-size="24" font-weight="normal" joint-selector="text" pointer-events="none" text-anchor="middle" transform="matrix(1,0,0,1,0,-24.200000762939453)" xml:space="preserve"><tspan dy="0">7: Emits counters,</tspan><tspan x="0" dy="1.2em">timers</tspan></text></g><g id="v-23410" cursor="move" label-idx="1" transform="matrix(1,0,0,1,810,1177.300048828125)" style="cursor:default"><rect id="v-23415" width="49.902" height="24.862" fill="#111" joint-selector="rect" pointer-events="none" rx="3" ry="3" transform="matrix(1,0,0,1,-25,-12.399999618530273)"/><text id="v-23414" y=".8em" fill="#505050" font-family="Open Sans" font-size="17" font-weight="normal" joint-selector="text" pointer-events="none" text-anchor="middle" transform="matrix(1,0,0,1,0,-6.900000095367432)" xml:space="preserve"><tspan dy="0">[UDP]</tspan></text></g><g id="v-23411" cursor="move" label-idx="2" transform="matrix(1,0,0,1,800,1185.699951171875)" style="cursor:default"><rect id="v-23417" width="0" height="0" fill="#fff" display="none" joint-selector="rect" rx="3" ry="3" transform="matrix(1,0,0,1,0,0)"/></g></g><g id="v-23422" display="none"><g id="v-23407"><path d="M 26 0 L 0 13 L 26 26 z" end="source"/></g><g id="v-23408"><path d="M 26 0 L 0 13 L 26 26 z" end="target"/></g></g><g id="v-23421" display="none"><g id="v-23406"><g event="remove" transform="translate(951.5094051574697, 1025.6645988506523)"><circle r="11"/><path d="M24.778,21.419 19.276,15.917 24.777,10.415 21.949,7.585 16.447,13.087 10.945,7.585 8.117,10.415 13.618,15.917 8.116,21.419 10.946,24.248 16.447,18.746 21.948,24.248z" transform="scale(.8) translate(-16, -16)"/><title>Remove link.</title></g><g event="link:options" transform="translate(951.5094051574697, 1025.6645988506523)"><circle r="11" transform="translate(25)"/><path fill="#fff" d="M31.229,17.736c0.064-0.571,0.104-1.148,0.104-1.736s-0.04-1.166-0.104-1.737l-4.377-1.557c-0.218-0.716-0.504-1.401-0.851-2.05l1.993-4.192c-0.725-0.91-1.549-1.734-2.458-2.459l-4.193,1.994c-0.647-0.347-1.334-0.632-2.049-0.849l-1.558-4.378C17.165,0.708,16.588,0.667,16,0.667s-1.166,0.041-1.737,0.105L12.707,5.15c-0.716,0.217-1.401,0.502-2.05,0.849L6.464,4.005C5.554,4.73,4.73,5.554,4.005,6.464l1.994,4.192c-0.347,0.648-0.632,1.334-0.849,2.05l-4.378,1.557C0.708,14.834,0.667,15.412,0.667,16s0.041,1.165,0.105,1.736l4.378,1.558c0.217,0.715,0.502,1.401,0.849,2.049l-1.994,4.193c0.725,0.909,1.549,1.733,2.459,2.458l4.192-1.993c0.648,0.347,1.334,0.633,2.05,0.851l1.557,4.377c0.571,0.064,1.148,0.104,1.737,0.104c0.588,0,1.165-0.04,1.736-0.104l1.558-4.377c0.715-0.218,1.399-0.504,2.049-0.851l4.193,1.993c0.909-0.725,1.733-1.549,2.458-2.458l-1.993-4.193c0.347-0.647,0.633-1.334,0.851-2.049L31.229,17.736zM16,20.871c-2.69,0-4.872-2.182-4.872-4.871c0-2.69,2.182-4.872,4.872-4.872c2.689,0,4.871,2.182,4.871,4.872C20.871,18.689,18.689,20.871,16,20.871z" transform="scale(.55) translate(29, -16)"/><title>Link options.</title></g></g></g></g><g id="j_1522"><path id="v-23438" fill="none" stroke="#505050" stroke-width="2" d="M 1078 1001 L 542 1825"/><path fill="#000" stroke="#000" d="M 0 0 0 0" transform="matrix(-0.5446735620498657,0.8386481404304504,-0.8386481404304504,-0.5446735620498657,1077.5799560546875,1001)"/><path id="v-23440" fill="#505050" stroke="#505050" d="M 20 0 L 0 10 L 20 20 z" transform="matrix(0.5446734428405762,-0.83864825963974,0.83864825963974,0.5446734428405762,534.0335693359375,1819.55322265625)"/><path id="v-23439" fill="none" d="M 1078 1001 L 542 1825" style="cursor:default"/><g><g id="v-23429" cursor="move" label-idx="0" transform="matrix(1,0,0,1,810,1413)" style="cursor:default"><rect id="v-23433" width="152.2" height="121.5" fill="#111" joint-selector="rect" pointer-events="none" rx="3" ry="3" transform="matrix(1,0,0,1,-76.0999984741211,-60.79999923706055)"/><text id="v-23432" y=".8em" fill="#505050" font-family="Open Sans" font-size="24" font-weight="normal" joint-selector="text" pointer-events="none" text-anchor="middle" transform="matrix(1,0,0,1,0,-53)" xml:space="preserve"><tspan dy="0">7: Logs</tspan><tspan x="0" dy="1.2em">processing</tspan><tspan x="0" dy="1.2em">events, glean</tspan><tspan x="0" dy="1.2em">metrics</tspan></text></g><g id="v-23430" cursor="move" label-idx="1" transform="matrix(1,0,0,1,810,1482.5999755859375)" style="cursor:default"><rect id="v-23435" width="129.342" height="24.862" fill="#111" joint-selector="rect" pointer-events="none" rx="3" ry="3" transform="matrix(1,0,0,1,-64.69999694824219,-12.399999618530273)"/><text id="v-23434" y=".8em" fill="#505050" font-family="Open Sans" font-size="17" font-weight="normal" joint-selector="text" pointer-events="none" text-anchor="middle" transform="matrix(1,0,0,1,0,-6.900000095367432)" xml:space="preserve"><tspan dy="0">[stdout / stderr]</tspan></text></g><g id="v-23431" cursor="move" label-idx="2" transform="matrix(1,0,0,1,800,1491)" style="cursor:default"><rect id="v-23437" width="0" height="0" fill="#fff" display="none" joint-selector="rect" rx="3" ry="3" transform="matrix(1,0,0,1,0,0)"/></g></g><g id="v-23442" display="none"><g id="v-23427"><path d="M 26 0 L 0 13 L 26 26 z" end="source"/></g><g id="v-23428"><path d="M 26 0 L 0 13 L 26 26 z" end="target"/></g></g><g id="v-23441" display="none"><g id="v-23426"><g event="remove" transform="translate(1056.1890248216584, 1034.530305124913)"><circle r="11"/><path d="M24.778,21.419 19.276,15.917 24.777,10.415 21.949,7.585 16.447,13.087 10.945,7.585 8.117,10.415 13.618,15.917 8.116,21.419 10.946,24.248 16.447,18.746 21.948,24.248z" transform="scale(.8) translate(-16, -16)"/><title>Remove link.</title></g><g event="link:options" transform="translate(1056.1890248216584, 1034.530305124913)"><circle r="11" transform="translate(25)"/><path fill="#fff" d="M31.229,17.736c0.064-0.571,0.104-1.148,0.104-1.736s-0.04-1.166-0.104-1.737l-4.377-1.557c-0.218-0.716-0.504-1.401-0.851-2.05l1.993-4.192c-0.725-0.91-1.549-1.734-2.458-2.459l-4.193,1.994c-0.647-0.347-1.334-0.632-2.049-0.849l-1.558-4.378C17.165,0.708,16.588,0.667,16,0.667s-1.166,0.041-1.737,0.105L12.707,5.15c-0.716,0.217-1.401,0.502-2.05,0.849L6.464,4.005C5.554,4.73,4.73,5.554,4.005,6.464l1.994,4.192c-0.347,0.648-0.632,1.334-0.849,2.05l-4.378,1.557C0.708,14.834,0.667,15.412,0.667,16s0.041,1.165,0.105,1.736l4.378,1.558c0.217,0.715,0.502,1.401,0.849,2.049l-1.994,4.193c0.725,0.909,1.549,1.733,2.459,2.458l4.192-1.993c0.648,0.347,1.334,0.633,2.05,0.851l1.557,4.377c0.571,0.064,1.148,0.104,1.737,0.104c0.588,0,1.165-0.04,1.736-0.104l1.558-4.377c0.715-0.218,1.399-0.504,2.049-0.851l4.193,1.993c0.909-0.725,1.733-1.549,2.458-2.458l-1.993-4.193c0.347-0.647,0.633-1.334,0.851-2.049L31.229,17.736zM16,20.871c-2.69,0-4.872-2.182-4.872-4.871c0-2.69,2.182-4.872,4.872-4.872c2.689,0,4.871,2.182,4.871,4.872C20.871,18.689,18.689,20.871,16,20.871z" transform="scale(.55) translate(29, -16)"/><title>Link options.</title></g></g></g></g><g id="j_1523"><path id="v-23459" fill="none" stroke="#505050" stroke-width="2" d="M 1400 876 L 1537 892 C 1543.6666666666665 892.6666666666665 1549 895.6666666666665 1553 901 L 1659 1045"/><path fill="#000" stroke="#000" d="M 0 0 0 0" transform="matrix(0.9936842918395996,0.11221196502447128,-0.11221196502447128,0.9936842918395996,1400,876.4000244140625)"/><path id="v-23461" fill="#505050" stroke="#505050" d="M 20 0 L 0 10 L 20 20 z" transform="matrix(-0.5940220355987549,-0.8044487833976746,0.8044487833976746,-0.5940220355987549,1651.195556640625,1050.9403076171875)"/><path id="v-23460" fill="none" d="M 1400 876 L 1537 892 C 1543.6666666666665 892.6666666666665 1549 895.6666666666665 1553 901 L 1659 1045" style="cursor:default"/><g><g id="v-23450" cursor="move" label-idx="0" transform="matrix(1,0,0,1,1559.505126953125,909.837158203125)" style="cursor:default"><rect id="v-23454" width="205.35" height="63.9" fill="#111" joint-selector="rect" pointer-events="none" rx="3" ry="3" transform="matrix(1,0,0,1,-102.69999694824219,-32)"/><text id="v-23453" y=".8em" fill="#505050" font-family="Open Sans" font-size="24" font-weight="normal" joint-selector="text" pointer-events="none" text-anchor="middle" transform="matrix(1,0,0,1,0,-24.200000762939453)" xml:space="preserve"><tspan dy="0">8: Deletes original</tspan><tspan x="0" dy="1.2em">email</tspan></text></g><g id="v-23451" cursor="move" label-idx="1" transform="matrix(1,0,0,1,1559.505126953125,950.6371459960938)" style="cursor:default"><rect id="v-23456" width="64.14" height="24.862" fill="#111" joint-selector="rect" pointer-events="none" rx="3" ry="3" transform="matrix(1,0,0,1,-32.099998474121094,-12.399999618530273)"/><text id="v-23455" y=".8em" fill="#505050" font-family="Open Sans" font-size="17" font-weight="normal" joint-selector="text" pointer-events="none" text-anchor="middle" transform="matrix(1,0,0,1,0,-6.900000095367432)" xml:space="preserve"><tspan dy="0">[S3 API]</tspan></text></g><g id="v-23452" cursor="move" label-idx="2" transform="matrix(1,0,0,1,1549.505126953125,959.0371704101562)" style="cursor:default"><rect id="v-23458" width="0" height="0" fill="#fff" display="none" joint-selector="rect" rx="3" ry="3" transform="matrix(1,0,0,1,0,0)"/></g></g><g display="none"><g id="v-23447" transform="translate(1547, 893)"><circle r="10" idx="0"/><path d="M16,5.333c-7.732,0-14,4.701-14,10.5c0,1.982,0.741,3.833,2.016,5.414L2,25.667l5.613-1.441c2.339,1.317,5.237,2.107,8.387,2.107c7.732,0,14-4.701,14-10.5C30,10.034,23.732,5.333,16,5.333z" idx="0" transform="translate(5, -33)"/><path d="M24.778,21.419 19.276,15.917 24.777,10.415 21.949,7.585 16.447,13.087 10.945,7.585 8.117,10.415 13.618,15.917 8.116,21.419 10.946,24.248 16.447,18.746 21.948,24.248z" idx="0" transform="scale(.8) translate(9.5, -37)"><title>Remove vertex.</title></path></g></g><g id="v-23463" display="none"><g id="v-23448"><path d="M 26 0 L 0 13 L 26 26 z" end="source"/></g><g id="v-23449"><path d="M 26 0 L 0 13 L 26 26 z" end="target"/></g></g><g id="v-23462" display="none"><g id="v-23446"><g event="remove" transform="translate(1439.729968960974, 880.6399963750043)"><circle r="11"/><path d="M24.778,21.419 19.276,15.917 24.777,10.415 21.949,7.585 16.447,13.087 10.945,7.585 8.117,10.415 13.618,15.917 8.116,21.419 10.946,24.248 16.447,18.746 21.948,24.248z" transform="scale(.8) translate(-16, -16)"/><title>Remove link.</title></g><g event="link:options" transform="translate(1439.729968960974, 880.6399963750043)"><circle r="11" transform="translate(25)"/><path fill="#fff" d="M31.229,17.736c0.064-0.571,0.104-1.148,0.104-1.736s-0.04-1.166-0.104-1.737l-4.377-1.557c-0.218-0.716-0.504-1.401-0.851-2.05l1.993-4.192c-0.725-0.91-1.549-1.734-2.458-2.459l-4.193,1.994c-0.647-0.347-1.334-0.632-2.049-0.849l-1.558-4.378C17.165,0.708,16.588,0.667,16,0.667s-1.166,0.041-1.737,0.105L12.707,5.15c-0.716,0.217-1.401,0.502-2.05,0.849L6.464,4.005C5.554,4.73,4.73,5.554,4.005,6.464l1.994,4.192c-0.347,0.648-0.632,1.334-0.849,2.05l-4.378,1.557C0.708,14.834,0.667,15.412,0.667,16s0.041,1.165,0.105,1.736l4.378,1.558c0.217,0.715,0.502,1.401,0.849,2.049l-1.994,4.193c0.725,0.909,1.549,1.733,2.459,2.458l4.192-1.993c0.648,0.347,1.334,0.633,2.05,0.851l1.557,4.377c0.571,0.064,1.148,0.104,1.737,0.104c0.588,0,1.165-0.04,1.736-0.104l1.558-4.377c0.715-0.218,1.399-0.504,2.049-0.851l4.193,1.993c0.909-0.725,1.733-1.549,2.458-2.458l-1.993-4.193c0.347-0.647,0.633-1.334,0.851-2.049L31.229,17.736zM16,20.871c-2.69,0-4.872-2.182-4.872-4.871c0-2.69,2.182-4.872,4.872-4.872c2.689,0,4.871,2.182,4.871,4.872C20.871,18.689,18.689,20.871,16,20.871z" transform="scale(.55) translate(29, -16)"/><title>Link options.</title></g></g></g></g><g id="j_1524"><path id="v-23479" fill="none" stroke="#505050" stroke-width="2" d="M 2485 726 L 2100 511"/><path fill="#000" stroke="#000" d="M 0 0 0 0" transform="matrix(-0.8737030029296875,-0.48645973205566406,0.48645973205566406,-0.8737030029296875,2485,725.719970703125)"/><path id="v-23481" fill="#505050" stroke="#505050" d="M 20 0 L 0 10 L 20 20 z" transform="matrix(0.8737030029296875,0.4864597022533417,-0.4864597022533417,0.8737030029296875,2104.86474609375,502.62298583984375)"/><path id="v-23480" fill="none" d="M 2485 726 L 2100 511" style="cursor:default"/><g><g id="v-23470" cursor="move" label-idx="0" transform="matrix(1,0,0,1,2292.5,618.5)" style="cursor:default"><rect id="v-23474" width="181.45" height="63.9" fill="#111" joint-selector="rect" pointer-events="none" rx="3" ry="3" transform="matrix(1,0,0,1,-90.69999694824219,-32)"/><text id="v-23473" y=".8em" fill="#505050" font-family="Open Sans" font-size="24" font-weight="normal" joint-selector="text" pointer-events="none" text-anchor="middle" transform="matrix(1,0,0,1,0,-24.200000762939453)" xml:space="preserve"><tspan dy="0">9: User receives</tspan><tspan x="0" dy="1.2em">email</tspan></text></g><g id="v-23471" cursor="move" label-idx="1" transform="matrix(1,0,0,1,2292.5,659.2999877929688)" style="cursor:default"><rect id="v-23476" width="219.513" height="24.862" fill="#111" joint-selector="rect" pointer-events="none" rx="3" ry="3" transform="matrix(1,0,0,1,-109.80000305175781,-12.399999618530273)"/><text id="v-23475" y=".8em" fill="#505050" font-family="Open Sans" font-size="17" font-weight="normal" joint-selector="text" pointer-events="none" text-anchor="middle" transform="matrix(1,0,0,1,0,-6.900000095367432)" xml:space="preserve"><tspan dy="0">[SMTP via user&apos;s real email]</tspan></text></g><g id="v-23472" cursor="move" label-idx="2" transform="matrix(1,0,0,1,2282.5,667.7000122070312)" style="cursor:default"><rect id="v-23478" width="0" height="0" fill="#fff" display="none" joint-selector="rect" rx="3" ry="3" transform="matrix(1,0,0,1,0,0)"/></g></g><g id="v-23483" display="none"><g id="v-23468"><path d="M 26 0 L 0 13 L 26 26 z" end="source"/></g><g id="v-23469"><path d="M 26 0 L 0 13 L 26 26 z" end="target"/></g></g><g id="v-23482" display="none"><g id="v-23467"><g event="remove" transform="translate(2450.076581596361, 706.4973118005653)"><circle r="11"/><path d="M24.778,21.419 19.276,15.917 24.777,10.415 21.949,7.585 16.447,13.087 10.945,7.585 8.117,10.415 13.618,15.917 8.116,21.419 10.946,24.248 16.447,18.746 21.948,24.248z" transform="scale(.8) translate(-16, -16)"/><title>Remove link.</title></g><g event="link:options" transform="translate(2450.076581596361, 706.4973118005653)"><circle r="11" transform="translate(25)"/><path fill="#fff" d="M31.229,17.736c0.064-0.571,0.104-1.148,0.104-1.736s-0.04-1.166-0.104-1.737l-4.377-1.557c-0.218-0.716-0.504-1.401-0.851-2.05l1.993-4.192c-0.725-0.91-1.549-1.734-2.458-2.459l-4.193,1.994c-0.647-0.347-1.334-0.632-2.049-0.849l-1.558-4.378C17.165,0.708,16.588,0.667,16,0.667s-1.166,0.041-1.737,0.105L12.707,5.15c-0.716,0.217-1.401,0.502-2.05,0.849L6.464,4.005C5.554,4.73,4.73,5.554,4.005,6.464l1.994,4.192c-0.347,0.648-0.632,1.334-0.849,2.05l-4.378,1.557C0.708,14.834,0.667,15.412,0.667,16s0.041,1.165,0.105,1.736l4.378,1.558c0.217,0.715,0.502,1.401,0.849,2.049l-1.994,4.193c0.725,0.909,1.549,1.733,2.459,2.458l4.192-1.993c0.648,0.347,1.334,0.633,2.05,0.851l1.557,4.377c0.571,0.064,1.148,0.104,1.737,0.104c0.588,0,1.165-0.04,1.736-0.104l1.558-4.377c0.715-0.218,1.399-0.504,2.049-0.851l4.193,1.993c0.909-0.725,1.733-1.549,2.458-2.458l-1.993-4.193c0.347-0.647,0.633-1.334,0.851-2.049L31.229,17.736zM16,20.871c-2.69,0-4.872-2.182-4.872-4.871c0-2.69,2.182-4.872,4.872-4.872c2.689,0,4.871,2.182,4.871,4.872C20.871,18.689,18.689,20.871,16,20.871z" transform="scale(.55) translate(29, -16)"/><title>Link options.</title></g></g></g></g></g></g></svg>